<svg width="42" height="18" viewBox="0 0 42 18" fill="none" xmlns="http://www.w3.org/2000/svg">
    <g clip-path="url(#clip0_1602_86715)">
        <path
            d="M37.5 12.9807C37.5 13.0174 37.471 13.0487 37.4342 13.0487C36.5764 13.0489 35.7186 13.0489 34.8608 13.0487C34.765 13.0486 34.7819 13.0582 34.779 12.9691C34.765 12.5348 34.752 12.1005 34.7386 11.6662C34.7368 11.606 34.7365 11.6056 34.6759 11.6056C34.1348 11.6055 33.5937 11.6063 33.0526 11.6042C33.0052 11.604 32.9888 11.6229 32.9728 11.6616C32.7894 12.1055 32.6045 12.5489 32.4196 12.9923C32.3937 13.0544 32.4085 13.0487 32.3349 13.0487C31.3759 13.0489 30.4169 13.0489 29.4579 13.0489C29.4255 13.0489 29.4045 13.0147 29.4191 12.9858C30.3534 11.1363 31.2842 9.29369 32.2188 7.44369C32.307 7.26906 32.1801 7.06277 31.9845 7.06277C31.9387 7.06277 31.8932 7.06277 31.8477 7.06277C31.8026 7.06277 31.7721 7.03107 31.7932 6.99122C32.1847 6.2539 32.5767 5.51685 32.9686 4.77975C32.9963 4.72764 33.0248 4.67593 33.051 4.62308C33.0623 4.60038 33.0771 4.5899 33.1025 4.59255C33.1156 4.5939 33.1289 4.59277 33.1421 4.59277C34.4464 4.59277 35.7507 4.59264 37.0551 4.59307C37.1391 4.59311 37.1371 4.57306 37.1421 4.67741C37.163 5.11574 37.1848 5.55404 37.2059 5.99237C37.2164 6.21045 37.2259 6.42858 37.2365 6.64666C37.2567 7.06099 37.2775 7.47527 37.298 7.8896C37.3077 8.08802 37.3171 8.28649 37.3267 8.48495C37.3481 8.92324 37.3695 9.36158 37.3908 9.79987C37.4003 9.99612 37.4096 10.1924 37.4191 10.3887C37.4405 10.827 37.462 11.2653 37.4831 11.7036C37.4832 11.7055 37.4833 11.7074 37.4834 11.7092C37.4895 11.8404 37.4965 11.9717 37.5 12.103C37.5 12.3955 37.5 12.6881 37.5 12.9807ZM34.74 7.54469C34.7397 7.52699 34.7229 7.52157 34.7155 7.53764C34.6229 7.73757 34.3036 8.48955 34.0809 9.02541C33.9565 9.32481 34.1384 9.58938 34.4626 9.58959C34.5566 9.58965 34.6506 9.58976 34.7446 9.58997C34.7764 9.59006 34.7797 9.57348 34.7789 9.54852C34.7758 9.45031 34.7729 9.3521 34.7711 9.25389C34.7606 8.68415 34.7503 8.11442 34.74 7.54469Z"
            fill="#0063B0" />
        <path
            d="M4.50013 7.89527C4.50013 7.8367 4.5188 7.77682 4.52488 7.71857C4.61855 6.81254 4.84767 5.94308 5.23893 5.11765C5.30727 4.97351 5.38205 4.83263 5.45938 4.69297C5.47532 4.66418 5.49657 4.64695 5.52526 4.63308C6.21789 4.29747 6.94196 4.05382 7.69649 3.89837C8.08004 3.81934 8.46696 3.76336 8.85717 3.73274C9.25421 3.7016 9.65191 3.69355 10.0503 3.71174C10.4638 3.73061 10.8743 3.77376 11.2818 3.84444C12.0649 3.98023 12.819 4.20935 13.5422 4.53774C13.654 4.58854 13.764 4.64352 13.8755 4.69501C13.9034 4.70784 13.9199 4.72637 13.9325 4.7539C14.2628 5.47517 14.5192 6.22106 14.6857 6.99635C14.7714 7.39567 14.8314 7.79899 14.8657 8.20623C14.9023 8.64009 14.9105 9.07407 14.8851 9.5085C14.8332 10.3964 14.6557 11.2591 14.3537 12.0965C14.2373 12.4192 14.1037 12.7347 13.9542 13.0437C13.94 13.0729 13.9219 13.0924 13.8924 13.1069C13.2196 13.4371 12.5174 13.6843 11.7844 13.845C11.4193 13.925 11.0506 13.9823 10.6784 14.0187C10.22 14.0636 9.76073 14.0739 9.30117 14.0497C8.18649 13.9908 7.1158 13.7412 6.08847 13.308C5.89628 13.227 5.70734 13.139 5.51996 13.0475C5.49004 13.0329 5.47291 13.0128 5.45916 12.9837C5.13151 12.2897 4.88412 11.5686 4.7151 10.821C4.63182 10.4525 4.5725 10.0798 4.52922 9.70452C4.51707 9.59943 4.50001 9.49054 4.50003 9.38475C4.50013 8.88834 4.50013 8.39181 4.50013 7.89527ZM9.77939 13.8206C10.1339 13.8238 10.4741 13.8023 10.8129 13.7633C11.1953 13.7194 11.5733 13.6503 11.9467 13.5566C12.5475 13.4059 13.1258 13.1947 13.6821 12.9237C13.7136 12.9083 13.7343 12.8881 13.7491 12.8565C13.8178 12.7101 13.8854 12.5633 13.9479 12.4142C14.3287 11.506 14.5552 10.5615 14.6203 9.57965C14.6536 9.07742 14.6419 8.57589 14.5881 8.07514C14.5531 7.74936 14.5019 7.42629 14.433 7.10604C14.2762 6.3779 14.0365 5.67694 13.728 4.99869C13.7147 4.96938 13.6984 4.94785 13.6678 4.9341C13.6038 4.90535 13.5418 4.87217 13.4781 4.84255C12.4575 4.3678 11.384 4.09549 10.2603 4.01972C9.76796 3.98653 9.27572 3.99314 8.78396 4.03981C8.36975 4.07913 7.96026 4.14494 7.55538 4.23954C6.93276 4.38503 6.33324 4.59541 5.75737 4.87204C5.72525 4.88748 5.69871 4.90483 5.68009 4.93828C5.40886 5.42568 5.20195 5.93878 5.0523 6.47511C4.90098 7.01753 4.81175 7.56991 4.77385 8.13133C4.73858 8.65366 4.75265 9.17472 4.80807 9.69461C4.85065 10.0941 4.92026 10.4894 5.01331 10.8806C5.17085 11.5432 5.39493 12.1826 5.68324 12.8002C5.69809 12.832 5.71833 12.8518 5.74966 12.8673C6.08462 13.0324 6.42813 13.1774 6.78031 13.3023C7.42658 13.5314 8.09086 13.6851 8.77218 13.7639C9.11091 13.8031 9.45118 13.8245 9.77939 13.8206Z"
            fill="#0063B0" />
        <path
            d="M17.5965 7.51849C17.6461 7.32558 17.5004 7.1377 17.3012 7.1377C17.2546 7.1377 17.2082 7.1377 17.1619 7.1377C17.1242 7.1377 17.0967 7.11388 17.1139 7.08029C17.5308 6.26751 17.9484 5.45503 18.3647 4.64199C18.3828 4.60654 18.4026 4.59175 18.4443 4.5918C19.6146 4.59336 20.7849 4.59141 21.9552 4.5951C22.3138 4.59623 22.6645 4.65469 22.9987 4.79035C23.3725 4.94214 23.6745 5.17841 23.8713 5.53489C23.9838 5.73879 24.0464 5.95787 24.0645 6.18939C24.1036 6.68918 23.9642 7.14409 23.7047 7.56612C23.4288 8.01489 23.0494 8.35519 22.5814 8.59941C22.5455 8.6182 22.5392 8.6559 22.5739 8.67692C23.0424 8.96064 23.3176 9.37366 23.3991 9.91025C23.4539 10.2707 23.4106 10.6251 23.2895 10.9683C23.0154 11.7452 22.4975 12.3128 21.7675 12.6929C21.4234 12.872 21.0555 12.9779 20.6697 13.0235C20.5341 13.0396 20.3983 13.0486 20.2618 13.0487C18.9222 13.0487 17.5824 13.0488 16.2427 13.0486C16.2036 13.0486 16.1842 13.0128 16.1939 12.9749C16.6608 11.1586 17.128 9.34095 17.5965 7.51849ZM19.2812 10.7446C19.2692 10.7879 19.2914 10.8273 19.3363 10.8274C19.633 10.828 19.9298 10.8272 20.2264 10.8285C20.3495 10.829 20.467 10.8062 20.5771 10.7522C20.8074 10.6391 20.9774 10.4696 21.0568 10.2228C21.1098 10.0578 21.091 9.90042 20.9648 9.77237C20.8335 9.63915 20.6667 9.56886 20.4812 9.56329C20.2133 9.55525 19.945 9.56129 19.6769 9.56116C19.5962 9.56112 19.6124 9.56003 19.5942 9.62453C19.5031 9.94765 19.4133 10.2712 19.3231 10.5945C19.3091 10.6446 19.2952 10.6947 19.2812 10.7446ZM20.7067 6.88887C20.5704 6.88887 20.4341 6.8883 20.2978 6.88913C20.2344 6.88952 20.2403 6.87477 20.2233 6.95115C20.1929 7.08733 20.1648 7.22403 20.1356 7.36043C20.0948 7.55016 20.0536 7.73975 20.0132 7.92951C20.0028 7.97862 20.0054 7.98075 20.056 7.98206C20.067 7.98236 20.078 7.9821 20.089 7.9821C20.3176 7.9821 20.5462 7.98236 20.7748 7.98179C20.8099 7.98171 20.8448 7.98523 20.8801 7.98049C21.0138 7.96257 21.1244 7.89746 21.225 7.81386C21.3623 7.69978 21.4703 7.56403 21.5216 7.39031C21.5556 7.27536 21.5508 7.16275 21.4706 7.06802C21.3757 6.95611 21.2492 6.89626 21.1024 6.89C20.9707 6.88443 20.8386 6.88887 20.7067 6.88887Z"
            fill="#0063B0" />
        <path
            d="M31.8246 5.4233C31.8938 5.45937 31.9126 5.538 31.8741 5.60586C31.8214 5.69881 31.769 5.79125 31.7163 5.88356C31.3565 6.51401 30.9966 7.14433 30.6367 7.77474C30.5991 7.84063 30.5992 7.84059 30.5368 7.79148C30.1497 7.48646 29.7175 7.27446 29.2307 7.18234C28.6139 7.06556 28.0202 7.13359 27.4672 7.43957C26.88 7.76443 26.514 8.25974 26.3604 8.9092C26.3438 8.97918 26.3325 9.05043 26.3209 9.12145C26.3029 9.23071 26.3206 9.33919 26.3337 9.44727C26.3625 9.68484 26.4207 9.91471 26.5261 10.1311C26.7439 10.578 27.1052 10.8457 27.5857 10.9612C27.873 11.0303 28.1643 11.0366 28.4574 11.0056C28.9621 10.9522 29.4359 10.8 29.8848 10.5676C29.9901 10.5131 30.0913 10.4514 30.1908 10.387C30.2219 10.3668 30.247 10.3845 30.2298 10.4173C30.2293 10.4183 30.2288 10.4193 30.2283 10.4203C29.8708 11.1552 29.513 11.8898 29.1552 12.6245C29.092 12.7542 29.0265 12.8827 28.9666 13.0138C28.9446 13.0618 28.9125 13.0898 28.8646 13.1074C28.7488 13.15 28.6295 13.1794 28.5088 13.2033C28.119 13.2802 27.7248 13.3104 27.3281 13.3043C26.8646 13.2971 26.4074 13.241 25.9614 13.1106C25.5291 12.9843 25.1285 12.7954 24.7743 12.5151C24.395 12.2148 24.1135 11.8405 23.9208 11.4002C23.7546 11.0206 23.6691 10.6212 23.6245 10.2106C23.5944 9.93358 23.6274 9.66205 23.6651 9.38951C23.7093 9.06896 23.7805 8.75432 23.8773 8.44546C24.0493 7.89709 24.3008 7.38807 24.6426 6.92381C25.0194 6.41197 25.4791 5.9872 26.0139 5.64238C26.6841 5.21022 27.4149 4.92733 28.1992 4.78023C28.5437 4.71565 28.8915 4.68355 29.2425 4.69794C29.452 4.70656 29.659 4.73026 29.8556 4.80881C29.8813 4.81908 29.8955 4.81403 29.9114 4.79407C29.9674 4.72391 30.0244 4.65454 30.0815 4.58521C30.1222 4.53562 30.1092 4.53484 30.1701 4.56637C30.7216 4.85196 31.2733 5.13728 31.8246 5.4233Z"
            fill="#0063B0" />
        <path
            d="M9.50615 10.7224C9.5192 10.4581 9.51412 10.1938 9.50085 9.92993C9.47986 9.51287 9.42992 9.10006 9.30879 8.69761C9.21639 8.39062 9.05877 8.12231 8.84901 7.88144C8.69502 7.70459 8.52566 7.54187 8.37022 7.36642C8.19994 7.17417 8.05729 6.96723 8.00314 6.71035C7.97239 6.56451 7.95189 6.41776 7.95215 6.26884C7.95272 5.92545 8.04086 5.60877 8.25001 5.33053C8.42301 5.10036 8.65025 4.9406 8.91503 4.83082C9.15681 4.73057 9.41073 4.6832 9.67048 4.66028C9.76843 4.65163 9.8635 4.66868 9.95843 4.68621C10.2229 4.73501 10.4712 4.82491 10.6918 4.98127C11.0109 5.20753 11.2034 5.51573 11.2855 5.894C11.3472 6.17859 11.3339 6.46221 11.2707 6.7448C11.2674 6.75963 11.2623 6.77424 11.2566 6.78833C11.1337 7.08923 10.9638 7.35929 10.7289 7.58763C10.6064 7.70676 10.4826 7.82476 10.3727 7.95612C10.2371 8.11818 10.1214 8.29355 10.0303 8.48318C9.96115 8.62719 9.92269 8.78286 9.88716 8.93822C9.81343 9.2606 9.78026 9.58798 9.76506 9.91784C9.74596 10.3329 9.76274 10.7474 9.77636 11.1621C9.78074 11.2952 9.77982 11.4285 9.78324 11.5616C9.78412 11.596 9.77255 11.6071 9.7382 11.6059C9.67451 11.6036 9.61059 11.6036 9.54689 11.6058C9.51211 11.6071 9.50159 11.5946 9.50199 11.5609C9.50431 11.3513 9.5051 11.1416 9.50615 10.932C9.50645 10.8622 9.50615 10.7923 9.50615 10.7224Z"
            fill="#0063B0" />
        <path
            d="M9.45301 10.7976C9.45402 11.0434 9.44425 11.3008 9.42541 11.5579C9.42213 11.603 9.42195 11.6034 9.3756 11.6044C9.32943 11.6054 9.28316 11.6041 9.23703 11.6059C9.20952 11.6071 9.19949 11.5973 9.19629 11.5696C9.18578 11.4786 9.17447 11.3876 9.15931 11.2972C9.13031 11.1244 9.08348 10.9564 9.00922 10.797C8.87574 10.5106 8.6616 10.2957 8.39682 10.1277C8.1517 9.97206 7.88061 9.87706 7.60321 9.79747C7.40064 9.73932 7.19526 9.69091 6.99453 9.62636C6.82889 9.57313 6.66798 9.50997 6.52442 9.40889C6.32688 9.26979 6.21407 9.0799 6.17683 8.84429C6.14122 8.61886 6.16558 8.3959 6.20833 8.174C6.21328 8.14829 6.2206 8.12306 6.22502 8.09727C6.27615 7.79864 6.45222 7.58695 6.70219 7.42963C7.19982 7.11647 7.84565 7.13957 8.3361 7.48504C8.59058 7.66428 8.78098 7.89902 8.93194 8.16712C9.11266 8.48807 9.22612 8.83359 9.30445 9.19124C9.41104 9.67834 9.45722 10.2107 9.45301 10.7976Z"
            fill="#0063B0" />
        <path
            d="M9.84825 10.8C9.84286 10.4758 9.84834 10.2159 9.86143 9.95646C9.87856 9.61616 9.90638 9.27638 10.0043 8.94765C10.1372 8.50101 10.3382 8.08894 10.658 7.74216C10.8668 7.51581 11.1145 7.3471 11.4149 7.26154C11.9444 7.11066 12.5093 7.28951 12.8469 7.71641C12.9416 7.83606 13.0095 7.96842 13.0428 8.11921C13.0863 8.31615 13.1182 8.51331 13.1091 8.71587C13.0935 9.06465 12.9299 9.31948 12.6209 9.48433C12.4337 9.58419 12.2321 9.64534 12.0294 9.70363C11.7848 9.774 11.5378 9.83672 11.2992 9.92636C11.1343 9.9883 10.9734 10.0592 10.8268 10.1567C10.5719 10.3261 10.3853 10.5547 10.2582 10.8305C10.155 11.0543 10.1179 11.2929 10.1113 11.5371C10.109 11.6217 10.1221 11.6141 10.0335 11.6145C9.98953 11.6147 9.94555 11.6151 9.90156 11.6144C9.85425 11.6136 9.85294 11.6132 9.85193 11.5676C9.84987 11.4737 9.84864 11.3798 9.84838 11.286C9.8479 11.1025 9.84825 10.9191 9.84825 10.8Z"
            fill="#0063B0" />
        <path
            d="M6.27864 9.37373C6.28313 9.36722 6.29439 9.36869 6.29943 9.37478C6.30048 9.37606 6.30139 9.37741 6.30204 9.37886C6.34878 9.48395 6.43338 9.55189 6.5302 9.6073C6.66618 9.68511 6.8132 9.73661 6.96215 9.78319C7.22825 9.86639 7.50013 9.92898 7.76815 10.0052C7.91386 10.0467 8.06128 10.0854 8.19788 10.1509C8.67496 10.3798 8.98079 10.7451 9.08304 11.2676C9.10197 11.3642 9.10893 11.4618 9.09833 11.5606C9.09434 11.5979 9.07918 11.6076 9.04458 11.606C8.9963 11.6037 8.94776 11.6037 8.89952 11.606C8.86588 11.6076 8.84923 11.5969 8.83828 11.5635C8.80844 11.472 8.76814 11.385 8.71342 11.3048C8.59917 11.1372 8.43896 11.0531 8.23783 11.0391C8.07639 11.028 7.91776 11.0504 7.75904 11.0746C7.54635 11.1071 7.33479 11.1485 7.11816 11.1486C6.99427 11.1487 6.87248 11.1363 6.75349 11.1012C6.48853 11.023 6.30208 10.8496 6.18091 10.6107C5.96322 10.1813 6.00865 9.76753 6.27864 9.37373Z"
            fill="#0063B0" />
        <path
            d="M12.95 9.3791C12.9539 9.36348 12.9769 9.3635 12.9851 9.37735C13.1543 9.66333 13.2612 9.95799 13.2237 10.2893C13.1923 10.5667 13.0572 10.7868 12.8275 10.9484C12.5772 11.1245 12.2971 11.1932 11.9929 11.1781C11.777 11.1673 11.5665 11.1198 11.3538 11.088C11.2187 11.0678 11.0836 11.0544 10.9471 11.078C10.8094 11.1018 10.6962 11.1674 10.6038 11.2701C10.5269 11.3557 10.469 11.4533 10.4247 11.5586C10.4098 11.594 10.391 11.6096 10.3513 11.6063C10.3076 11.6027 10.2634 11.606 10.2194 11.6053C10.1751 11.6046 10.1732 11.604 10.1763 11.5626C10.2011 11.2363 10.292 10.9331 10.4957 10.6695C10.6839 10.4259 10.9308 10.2598 11.2081 10.1331C11.4687 10.0141 11.7431 9.9363 12.0187 9.86149C12.2093 9.80973 12.4013 9.76276 12.586 9.69143C12.6495 9.66686 12.7111 9.63828 12.7695 9.60292C12.8569 9.54986 12.924 9.481 12.95 9.3791Z"
            fill="#0063B0" />
        <path
            d="M7.35816 12.8738C7.33674 12.9471 7.26061 12.9899 7.18697 12.9698C7.17856 12.9674 7.16384 12.9657 7.16305 12.9617C7.15245 12.9072 7.11105 12.9293 7.08056 12.9292C7.02707 12.929 6.97568 12.9201 6.92622 12.9006C6.82511 12.8607 6.77363 12.7919 6.7781 12.6844C6.7866 12.4801 6.8453 12.2896 6.95548 12.1163C7.01848 12.0173 7.11324 11.9911 7.22487 12.0102C7.3046 12.0239 7.37553 12.0561 7.43677 12.1089C7.47388 12.1409 7.49337 12.1811 7.49131 12.23C7.48873 12.2911 7.47782 12.3509 7.46021 12.4099C7.45097 12.4409 7.43528 12.4462 7.40694 12.4392C7.3729 12.4308 7.33838 12.4234 7.30359 12.419C7.27577 12.4155 7.2639 12.4048 7.27113 12.3766C7.27542 12.3597 7.27704 12.3421 7.28186 12.3254C7.29132 12.2924 7.28116 12.2716 7.24826 12.2589C7.20603 12.2425 7.17944 12.2441 7.15823 12.27C7.15135 12.2783 7.14636 12.2883 7.14137 12.298C7.0909 12.3957 7.05576 12.4985 7.03666 12.6066C7.03403 12.6216 7.0332 12.637 7.03285 12.6522C7.03119 12.7248 7.06479 12.7515 7.13611 12.7346C7.16555 12.7276 7.19941 12.6718 7.19267 12.6427C7.18877 12.6259 7.17365 12.6267 7.16226 12.6221C7.08349 12.5906 7.08306 12.5907 7.11022 12.5118C7.12073 12.4814 7.11959 12.4379 7.14802 12.4252C7.17549 12.4129 7.20945 12.4394 7.24046 12.449C7.30337 12.4684 7.36541 12.4904 7.4281 12.5104C7.45083 12.5176 7.46016 12.528 7.45259 12.5533C7.42095 12.6591 7.38993 12.7651 7.35816 12.8738Z"
            fill="#0063B0" />
        <path
            d="M8.17831 12.9928C8.1582 13.0904 8.05929 13.1647 7.96172 13.1447C7.92921 13.138 7.92422 13.1202 7.93127 13.0929C7.94271 13.0486 7.95467 13.0045 7.96553 12.9601C7.97381 12.9263 7.98397 12.8927 7.98301 12.8573C7.98192 12.8163 7.96461 12.7868 7.92435 12.7717C7.87143 12.752 7.86411 12.7553 7.84966 12.8122C7.82872 12.8946 7.80624 12.9766 7.7885 13.0597C7.78114 13.0942 7.76694 13.1022 7.73435 13.0949C7.62712 13.0711 7.5574 12.9675 7.58094 12.8602C7.59357 12.8026 7.60614 12.7455 7.61887 12.6885C7.65256 12.5375 7.68686 12.3867 7.72086 12.2357C7.73404 12.1772 7.73404 12.177 7.79476 12.1859C7.87292 12.1975 7.95112 12.2084 8.02704 12.2315C8.06493 12.243 8.10156 12.2572 8.137 12.2748C8.32652 12.3687 8.32122 12.6013 8.20245 12.71C8.18791 12.7234 8.18024 12.7337 8.18734 12.7541C8.20797 12.8139 8.19987 12.8747 8.18953 12.9351C8.18621 12.9544 8.18229 12.9735 8.17831 12.9928ZM7.94082 12.5603C7.97048 12.564 8.00336 12.5732 8.02813 12.5564C8.04217 12.5469 8.0499 12.5312 8.05127 12.5094C8.05411 12.4647 8.03203 12.4427 7.97994 12.4327C7.93443 12.4239 7.93741 12.4577 7.93048 12.4837C7.92659 12.4985 7.92242 12.5132 7.91914 12.5281C7.91519 12.5459 7.9208 12.5578 7.94082 12.5603Z"
            fill="#0063B0" />
        <path
            d="M10.6445 12.3391C10.6559 12.3402 10.6803 12.3405 10.7039 12.3448C10.8781 12.3766 10.9691 12.5474 10.8947 12.7076C10.8805 12.7383 10.8864 12.7509 10.909 12.7718C10.9992 12.8555 11.0242 12.9847 10.9753 13.0961C10.9491 13.1557 10.9054 13.1968 10.8408 13.211C10.7315 13.2349 10.6216 13.2556 10.5123 13.2795C10.4757 13.2875 10.4725 13.2655 10.4684 13.2404C10.4371 13.0491 10.4057 12.8577 10.3745 12.6664C10.3643 12.604 10.3549 12.5415 10.3445 12.4792C10.3302 12.3936 10.3299 12.3936 10.4176 12.3721C10.488 12.3549 10.5588 12.3399 10.6445 12.3391ZM10.6143 12.531C10.5939 12.5297 10.5806 12.5399 10.5876 12.5694C10.5931 12.5924 10.596 12.616 10.6012 12.6391C10.6094 12.6761 10.6224 12.6795 10.6532 12.6535C10.6816 12.6294 10.6933 12.5954 10.6835 12.5676C10.6729 12.538 10.6493 12.5311 10.6143 12.531ZM10.6617 12.9407C10.6673 12.975 10.673 13.0093 10.6785 13.0436C10.6807 13.0568 10.6885 13.0616 10.7014 13.0592C10.7339 13.0532 10.7572 13.0187 10.755 12.9797C10.7525 12.9352 10.7314 12.9119 10.6928 12.9108C10.6721 12.9102 10.6579 12.9158 10.6617 12.9407Z"
            fill="#0063B0" />
        <path
            d="M8.73706 13.2858C8.58325 13.286 8.4569 13.1967 8.41703 13.0614C8.41003 13.0376 8.40884 13.0147 8.41138 12.9906C8.43281 12.7868 8.45388 12.583 8.47504 12.3792C8.47548 12.3748 8.47565 12.3705 8.47618 12.3661C8.48279 12.3085 8.48393 12.3076 8.54031 12.3168C8.58364 12.3238 8.62671 12.3336 8.67034 12.3371C8.70495 12.3399 8.71564 12.3529 8.71091 12.3865C8.69881 12.4729 8.68909 12.5595 8.67827 12.646C8.66749 12.7325 8.65636 12.819 8.64576 12.9056C8.6423 12.9338 8.63958 12.9626 8.64962 12.9898C8.66053 13.0193 8.67673 13.0449 8.71332 13.048C8.74849 13.0509 8.78122 13.0322 8.79739 12.9968C8.81022 12.9687 8.81189 12.9378 8.81574 12.9076C8.83747 12.7368 8.86021 12.5661 8.88018 12.3951C8.88408 12.3617 8.89495 12.3491 8.9289 12.3533C8.97245 12.3588 9.01634 12.3622 9.0602 12.3642C9.08749 12.3655 9.09218 12.3783 9.08972 12.4023C9.08061 12.4912 9.0733 12.5803 9.0648 12.6692C9.05362 12.7864 9.0382 12.9034 9.03146 13.0208C9.02322 13.1631 8.90787 13.2897 8.73706 13.2858Z"
            fill="#0063B0" />
        <path
            d="M11.9724 13.0126C11.9362 13.0251 11.8987 13.0085 11.8967 12.9702C11.8823 12.7022 11.8678 12.4342 11.8547 12.1661C11.8517 12.1053 11.8373 12.1057 11.9112 12.0876C11.9517 12.0777 11.9922 12.0676 12.0317 12.0546C12.0645 12.0438 12.0836 12.052 12.101 12.0821C12.1721 12.205 12.2455 12.3267 12.3182 12.4487C12.3819 12.5558 12.4452 12.663 12.5101 12.7694C12.5252 12.7943 12.5282 12.8102 12.4986 12.8267C12.4603 12.8479 12.4239 12.8727 12.3881 12.8979C12.3646 12.9144 12.3505 12.9096 12.3353 12.8869C12.3025 12.8378 12.2669 12.7906 12.234 12.7415C12.2195 12.7199 12.2038 12.712 12.1791 12.7239C12.1654 12.7306 12.1509 12.7365 12.1361 12.7403C12.11 12.7469 12.1015 12.7624 12.1041 12.7882C12.109 12.836 12.1112 12.884 12.116 12.9317C12.1184 12.9555 12.1087 12.967 12.0865 12.9742C12.0485 12.9864 12.0107 12.9994 11.9724 13.0126ZM12.0952 12.5577C12.1137 12.5535 12.121 12.5309 12.1107 12.5151C12.1077 12.5104 12.105 12.5065 12.1024 12.5032C12.0908 12.4882 12.0681 12.5012 12.0701 12.5201C12.0736 12.5531 12.0747 12.5624 12.0952 12.5577Z"
            fill="#0063B0" />
        <path
            d="M11.099 12.5049C11.0975 12.4565 11.1004 12.4086 11.1159 12.3624C11.1425 12.2831 11.1969 12.2341 11.2804 12.2196C11.35 12.2075 11.4196 12.2023 11.49 12.2181C11.5657 12.2351 11.6156 12.2788 11.6372 12.3522C11.6494 12.3937 11.6785 12.4432 11.6615 12.4767C11.6431 12.5131 11.5824 12.4978 11.5411 12.5094C11.5348 12.5112 11.5281 12.5113 11.5216 12.5125C11.4601 12.5234 11.4601 12.5234 11.4398 12.4677C11.4205 12.4146 11.3985 12.3957 11.3632 12.402C11.3238 12.409 11.2955 12.4537 11.3039 12.5052C11.3195 12.5999 11.3385 12.6941 11.3562 12.7884C11.3631 12.8249 11.369 12.8616 11.3781 12.8975C11.3909 12.9478 11.412 12.9625 11.4566 12.9568C11.4968 12.9515 11.5206 12.9244 11.5233 12.881C11.5251 12.8521 11.5167 12.8248 11.5108 12.7971C11.5057 12.7735 11.5119 12.7607 11.5389 12.758C11.5892 12.7529 11.6393 12.7458 11.6891 12.7376C11.71 12.7342 11.724 12.7366 11.727 12.7599C11.7378 12.8449 11.7431 12.9297 11.7064 13.0109C11.6815 13.0659 11.6376 13.1011 11.5818 13.121C11.5013 13.1498 11.4186 13.1552 11.3349 13.137C11.2753 13.124 11.2332 13.0878 11.2052 13.0346C11.1786 12.9838 11.1638 12.9292 11.1507 12.8739C11.122 12.7524 11.1077 12.629 11.099 12.5049Z"
            fill="#0063B0" />
        <path
            d="M9.5509 12.9629C9.46718 12.9588 9.46797 12.9588 9.46174 13.0369C9.45539 13.1173 9.44619 13.1976 9.44054 13.2781C9.43857 13.3064 9.42845 13.3155 9.40006 13.3129C9.36072 13.3093 9.32099 13.3081 9.28151 13.309C9.24896 13.3098 9.24055 13.297 9.24244 13.266C9.2533 13.0875 9.26237 12.9087 9.27223 12.7302C9.27788 12.6278 9.28432 12.5254 9.28953 12.423C9.29076 12.3988 9.29269 12.3804 9.32537 12.3828C9.42819 12.3903 9.53184 12.3892 9.63251 12.4168C9.83785 12.4731 9.91697 12.6873 9.79667 12.8627C9.74585 12.9368 9.67028 12.9595 9.58551 12.9627C9.57232 12.9633 9.55909 12.9629 9.5509 12.9629ZM9.62053 12.7043C9.62372 12.6916 9.62444 12.678 9.62134 12.6653C9.61262 12.6301 9.57547 12.6075 9.53368 12.612C9.49688 12.616 9.50831 12.6466 9.50349 12.6675C9.49911 12.6866 9.49692 12.7062 9.49434 12.7256C9.49316 12.7344 9.49329 12.7439 9.50341 12.7477C9.53074 12.7582 9.55957 12.7632 9.58643 12.75C9.60586 12.7405 9.61568 12.7237 9.62053 12.7043Z"
            fill="#0063B0" />
    </g>
    <defs>
        <clipPath id="clip0_1602_86715">
            <rect width="33" height="18" fill="white" transform="translate(4.5)" />
        </clipPath>
    </defs>
</svg>
