<svg xmlns="http://www.w3.org/2000/svg" width="32" height="14" viewBox="0 0 32 14" fill="none">
    <g clip-path="url(#clip0_2483_3881)">
        <path
            d="M9.07488 5.64596H10.723C11.3904 5.64596 11.888 5.93031 11.888 6.5294C11.888 6.96862 11.6571 7.21315 11.2566 7.34294V7.35297C11.7342 7.44795 11.9805 7.69749 11.9805 8.12167C11.9805 8.95526 11.2257 9.12988 10.584 9.12988H9.07488V5.64596ZM10.0297 7.02378H10.2967C10.6098 7.02378 10.9335 6.94885 10.9335 6.65418C10.9335 6.33502 10.6253 6.30493 10.3067 6.30493H10.0297V7.02378ZM10.0297 8.47121H10.3122C10.6614 8.47121 11.0257 8.42106 11.0257 8.0668C11.0257 7.68747 10.651 7.65266 10.3222 7.65266H10.0297V8.47121Z"
            fill="#00529C" />
        <path
            d="M13.234 5.64596H14.4045L15.7856 9.12988H14.7383L14.4713 8.38626H13.1263L12.8438 9.12988H11.8736L13.234 5.64596ZM13.8193 6.36481H13.809L13.3469 7.72758H14.2455L13.8193 6.36481Z"
            fill="#00529C" />
        <path
            d="M15.9184 5.64596H17.135L18.3468 8.01194H18.3568L18.3417 5.64596H19.2145V9.12988H18.0283L16.7758 6.74886H16.7658L16.7961 9.12988H15.9184V5.64596Z"
            fill="#00529C" />
        <path
            d="M19.5385 5.64596H20.4933V7.06861H20.5036L21.5816 5.64596H22.7315L21.4071 7.26801L22.8343 9.12988H21.6174L20.5036 7.54765H20.4933V9.12988H19.5385V5.64596Z"
            fill="#00529C" />
        <path
            d="M24.0186 5.64596H25.6667C26.3338 5.64596 26.832 5.93031 26.832 6.5294C26.832 6.96862 26.6011 7.21315 26.2007 7.34294V7.35297C26.6782 7.44795 26.9243 7.69749 26.9243 8.12167C26.9243 8.95526 26.1697 9.12988 25.528 9.12988H24.0186V5.64596ZM24.9734 7.02378H25.2404C25.5538 7.02378 25.8769 6.94885 25.8769 6.65418C25.8769 6.33502 25.5693 6.30493 25.2507 6.30493H24.9734V7.02378ZM24.9734 8.47121H25.2559C25.6048 8.47121 25.9695 8.42106 25.9695 8.0668C25.9695 7.68747 25.5948 7.65266 25.2662 7.65266H24.9734V8.47121Z"
            fill="#00529C" />
        <path
            d="M27.1361 5.64596H28.8406C29.4771 5.64596 29.9956 5.92559 29.9956 6.52468C29.9956 6.98868 29.7699 7.2981 29.3078 7.40282V7.41285C29.6155 7.49278 29.6361 7.75737 29.816 8.18155L30.1649 9.12988H29.1692L28.9638 8.5013C28.7687 7.90221 28.6452 7.75206 28.2911 7.75206H28.0909V9.12988H27.1361V5.64596ZM28.0909 7.09339H28.3424C28.6507 7.09339 29.0408 7.08336 29.0408 6.68898C29.0408 6.36481 28.7071 6.30493 28.3424 6.30493H28.0909V7.09339Z"
            fill="#00529C" />
        <path d="M30.4281 5.64551H31.3829V9.12943H30.4281V5.64551Z" fill="#00529C" />
        <path
            d="M6.89593 3.88867H1.89862C1.29181 3.88867 0.800003 4.37862 0.800003 4.98302V4.99452V9.79462C0.800003 10.3931 1.28271 10.8798 1.88163 10.8887H6.8932C7.5 10.8887 7.99211 10.399 7.99211 9.79462L7.99424 4.98302C7.99424 4.37862 7.50273 3.88867 6.89593 3.88867ZM2.49237 10.3279L2.21992 10.3309C1.88982 10.3309 1.62222 10.0672 1.62222 9.74182L1.6207 9.69551V5.25204L1.62252 5.01252C1.63496 4.69778 1.88102 4.44469 2.20293 4.44469H2.75724C3.25967 4.44469 3.66684 4.86946 3.66684 5.37002C3.66684 5.6178 3.56702 5.84257 3.4053 6.00599L1.99115 7.40121L3.31671 8.71354C3.48753 8.88492 3.59068 9.10969 3.59068 9.35599C3.59068 9.89284 3.09917 10.3279 2.49237 10.3279ZM6.56734 10.3235L4.09615 10.3226C4.09615 10.3226 4.38165 9.72235 4.38165 9.35068C4.38165 8.89731 4.226 8.49261 3.98207 8.22477L3.13679 7.38705L3.99936 6.52042C4.25634 6.28592 4.42685 5.86941 4.42685 5.3948C4.42685 5.01901 4.32006 4.68628 4.14803 4.44469H4.74664C5.24907 4.44469 5.65654 4.86946 5.65654 5.37002C5.65654 5.6178 5.55672 5.84257 5.395 6.00599L4.00786 7.38675L6.88895 10.243C6.79763 10.2987 6.68264 10.3235 6.56734 10.3235ZM7.17081 9.4318L5.10617 7.38587L6.08949 6.41423C6.28943 6.17088 6.41655 5.80452 6.41655 5.3948C6.41655 5.01665 6.30824 4.67536 6.1347 4.43378L6.57463 4.44676C6.90473 4.44676 7.17233 4.71047 7.17233 5.03582L7.17081 9.4318Z"
            fill="#00529C" />
    </g>
    <defs>
        <clipPath id="clip0_2483_3881">
            <rect width="30.5829" height="7" fill="white" transform="translate(0.800003 3.88867)" />
        </clipPath>
    </defs>
</svg>