<svg xmlns="http://www.w3.org/2000/svg" width="32" height="18" viewBox="0 0 32 18" fill="none">
    <path fill-rule="evenodd" clip-rule="evenodd"
        d="M1.08475 7.63086L3.60133 10.9073L1.08475 13.0595V7.63086Z" fill="#F15A23" />
    <path fill-rule="evenodd" clip-rule="evenodd"
        d="M2.09766 13.0597L3.99126 11.4248L5.30007 13.0597H2.09766Z" fill="#F15A23" />
    <path fill-rule="evenodd" clip-rule="evenodd"
        d="M1.08475 5.87913L1.74148 6.73652L4.44172 10.2189L5.3167 9.4998C5.3167 9.4998 4.59031 8.61719 4.10257 7.63229C3.14899 5.70669 3.8241 4.50781 3.8241 4.50781H1.08475V5.87913Z"
        fill="#F15A23" />
    <path fill-rule="evenodd" clip-rule="evenodd"
        d="M4.82652 10.7548L5.71763 9.99512C5.71763 9.99512 6.5687 11.1514 7.55554 11.4243C8.84872 11.7819 9.42129 10.9069 9.42129 10.9069V13.0592H6.58089L7.22137 12.4877C7.22137 12.4877 6.88721 12.7176 6.06994 12.1333C5.58758 11.7885 4.82652 10.7548 4.82652 10.7548Z"
        fill="#F15A23" />
    <path fill-rule="evenodd" clip-rule="evenodd"
        d="M4.90852 4.5C4.90852 4.5 4.62424 4.89968 4.82659 5.87759C5.04288 6.92285 5.90306 8.02914 5.90106 8.00437C5.90106 8.00437 5.95636 6.90588 6.58096 6.26124C7.9123 4.88719 9.42136 5.70515 9.42136 5.70515V4.50627L4.90852 4.5Z"
        fill="#F15A23" />
    <path fill-rule="evenodd" clip-rule="evenodd"
        d="M9.42136 7.15347C9.42136 7.15347 8.57942 6.40918 7.84744 6.40918C6.91107 6.40918 6.39996 7.24351 6.39996 7.84873C6.39996 8.73027 6.80994 9.2201 7.22145 9.64481C7.8128 10.2551 8.53224 10.9134 9.42136 10.3836C9.42136 9.38087 9.42136 7.15347 9.42136 7.15347Z"
        fill="#F15A23" />
    <path fill-rule="evenodd" clip-rule="evenodd"
        d="M19.0098 4.58984H20.9966C20.9966 4.58984 22.7566 7.34026 23.6216 8.47662C24.4866 9.61297 25.4176 10.9073 25.4176 10.9073C25.4176 10.9073 25.4176 7.15386 25.4176 5.2058C25.4176 4.95955 24.7912 4.58984 24.7912 4.58984H27.0822C27.0822 4.58984 26.3305 4.90861 26.3305 5.2058C26.3305 7.63092 26.3305 13.5002 26.3305 13.5002C26.3305 13.5002 25.6091 13.0873 24.7912 12.1064C23.8721 11.0042 20.6028 6.55432 20.6028 6.55432C20.6028 6.55432 20.6028 10.7551 20.6028 12.3179C20.6028 12.6131 21.2293 13.0596 21.2293 13.0596H19.0098C19.0098 13.0596 19.6184 12.6095 19.6184 12.3179C19.6184 10.2175 19.6184 7.15386 19.6184 5.2058C19.6184 4.94406 19.0098 4.58984 19.0098 4.58984Z"
        fill="#005E6A" />
    <path fill-rule="evenodd" clip-rule="evenodd"
        d="M28.3654 4.58984H30.9153C30.9153 4.58984 30.2306 4.92457 30.2306 5.2058C30.2306 7.15386 30.2306 10.384 30.2306 12.3179C30.2306 12.6252 30.9153 13.0596 30.9153 13.0596H28.3654C28.3654 13.0596 29.0028 12.6153 29.0028 12.3179C29.0028 9.99549 29.0028 7.15386 29.0028 5.2058C29.0028 4.93542 28.3654 4.58984 28.3654 4.58984Z"
        fill="#005E6A" />
    <path fill-rule="evenodd" clip-rule="evenodd"
        d="M11.5078 4.58984C11.5078 4.58984 12.1688 4.93004 12.1688 5.2058C12.1688 7.15386 12.1688 9.99549 12.1688 12.3179C12.1688 12.6202 11.5078 13.0596 11.5078 13.0596C11.5078 13.0596 14.8104 13.0596 15.2854 13.0596C15.5215 13.0596 18.1658 12.6133 18.1658 10.5092C18.1658 8.40516 16.1117 8.20815 16.1117 8.20815C16.1117 8.20815 17.3631 7.84911 17.3631 6.40956C17.3631 4.85789 15.5215 4.58984 15.2854 4.58984C14.7947 4.58984 11.5078 4.58984 11.5078 4.58984ZM13.5146 8.06871V5.42082C13.5146 5.42082 14.6096 5.42082 15.0493 5.42082C15.2854 5.42082 16.1117 5.70533 16.1117 6.76089C16.1117 7.63092 15.2854 8.06871 15.0493 8.06871C14.514 8.06871 13.5146 8.06871 13.5146 8.06871ZM13.5146 8.76319C13.5146 8.76319 15.0493 8.76319 15.2854 8.76319C15.5215 8.76319 16.9145 9.13662 16.9145 10.384C16.9145 11.6557 15.5215 12.1064 15.2854 12.1064C15.0493 12.1064 13.5146 12.1064 13.5146 12.1064V8.76319Z"
        fill="#005E6A" />
</svg>