<svg xmlns="http://www.w3.org/2000/svg" width="32" height="14" viewBox="0 0 32 14" fill="none">
    <path
        d="M0.920203 8.63812C0.920203 8.20402 0.912502 7.83932 0.888885 7.51391H1.71598L1.75517 8.07287H1.77828C1.96515 7.77791 2.30845 7.42835 2.94833 7.42835C3.44787 7.42835 3.83755 7.70817 4.00115 8.12628H4.01724C4.1497 7.91705 4.30543 7.76209 4.48478 7.6539C4.69545 7.50659 4.93777 7.42835 5.24941 7.42835C5.88124 7.42835 6.5206 7.8548 6.5206 9.06525V11.29H5.58484V9.20423C5.58484 8.57672 5.36647 8.20402 4.90611 8.20402C4.57856 8.20402 4.3364 8.43672 4.23526 8.70838C4.21199 8.80057 4.18854 8.9176 4.18854 9.02545V11.29H3.25243V9.10285C3.25243 8.57672 3.04211 8.20402 2.59699 8.20402C2.2388 8.20402 1.99699 8.48316 1.91039 8.74665C1.87171 8.83953 1.85597 8.94839 1.85597 9.05658V11.29H0.920203V8.63812Z"
        fill="#003D79" />
    <path
        d="M10.1673 10.383C10.1673 10.7238 10.1827 11.0569 10.2216 11.2899H9.35564L9.29335 10.8715H9.26973C9.03562 11.1665 8.63773 11.375 8.14725 11.375C7.38228 11.375 6.95341 10.8251 6.95341 10.251C6.95341 9.29667 7.80293 8.81681 9.20778 8.8243V8.76238C9.20778 8.5142 9.10595 8.10323 8.4351 8.10323C8.06049 8.10323 7.67064 8.21975 7.41326 8.3822L7.2262 7.762C7.50704 7.59121 7.99837 7.42826 8.59871 7.42826C9.81599 7.42826 10.1673 8.19661 10.1673 9.01787V10.383ZM9.23088 9.44517C8.55199 9.42935 7.90493 9.57649 7.90493 10.1503C7.90493 10.5224 8.14725 10.6932 8.45102 10.6932C8.83265 10.6932 9.114 10.4444 9.19973 10.1732C9.22284 10.1031 9.23088 10.0262 9.23088 9.96416V9.44517Z"
        fill="#003D79" />
    <path
        d="M10.8301 8.63812C10.8301 8.20402 10.8219 7.83932 10.7995 7.51391H11.6411L11.6878 8.08069H11.7116C11.8752 7.78573 12.2889 7.42835 12.9205 7.42835C13.5838 7.42835 14.2699 7.8548 14.2699 9.04943V11.29H13.3107V9.1583C13.3107 8.61516 13.1074 8.20402 12.5851 8.20402C12.2033 8.20402 11.9375 8.47533 11.8364 8.76247C11.8054 8.84769 11.7974 8.96387 11.7974 9.07206V11.29H10.8301V8.63812Z"
        fill="#003D79" />
    <path
        d="M18.4294 5.99717V10.2277C18.4294 10.6151 18.4455 11.0343 18.4607 11.2899H17.6031L17.5641 10.6932H17.5482C17.322 11.1118 16.8616 11.375 16.3082 11.375C15.403 11.375 14.686 10.6075 14.686 9.44517C14.6778 8.18096 15.4732 7.42842 16.386 7.42842C16.9083 7.42842 17.2829 7.64548 17.4544 7.92564H17.4703V5.99717H18.4294ZM17.4703 9.08779C17.4703 9.01056 17.4626 8.91751 17.4467 8.83943C17.361 8.4681 17.0572 8.16548 16.6201 8.16548C16.0039 8.16548 15.6602 8.70828 15.6602 9.4137C15.6602 10.1031 16.0039 10.6075 16.6126 10.6075C17.0018 10.6075 17.3454 10.3438 17.4389 9.93269C17.4626 9.84764 17.4703 9.75425 17.4703 9.65372V9.08779Z"
        fill="#003D79" />
    <path d="M19.1081 7.51367H20.0758V11.2896H19.1081V7.51367Z" fill="#003D79" />
    <path
        d="M20.7537 8.73151C20.7537 8.21967 20.746 7.8548 20.7231 7.51391H21.5577L21.5883 8.2343H21.62C21.8072 7.7 22.2515 7.51391 22.6579 7.51391C22.751 7.51391 22.8056 7.49843 22.8833 7.51391V8.35167C22.8056 8.33602 22.7201 8.32071 22.603 8.32071C22.1423 8.32071 21.8302 8.61516 21.7446 9.04093C21.7295 9.12649 21.7136 9.2277 21.7136 9.3364V11.29H20.7537V8.73151Z"
        fill="#003D79" />
    <path d="M23.3286 7.51367H24.2951V11.2896H23.3286V7.51367Z" fill="#003D79" />
    <path
        d="M23.131 2.94281C22.5488 3.27826 20.6512 4.35586 20.6512 4.35586C19.9388 4.64776 19.393 4.29225 19.2162 4.03165C19.2084 4.02178 19.2005 4.01004 19.1954 4.00034L19.1721 3.96071L19.0518 3.76543C19.0004 3.6848 18.9433 3.60179 18.8777 3.51657C18.8192 3.44206 18.7542 3.36825 18.6835 3.29697C18.2262 2.83752 17.4943 2.51483 16.2749 3.09131C15.5375 3.5096 13.8227 4.48429 13.8227 4.48429C13.8226 4.4848 13.8226 4.4848 13.8224 4.4848C13.1168 4.88574 12.5671 5.1977 12.5671 5.1977L13.2166 5.99039C13.4897 6.24912 14.0035 6.67353 14.7982 6.31563C14.7982 6.31563 16.9915 5.05329 17 5.04955C18.8752 4.02671 19.8007 5.00413 20.2095 5.65563C20.2237 5.6757 20.2355 5.69798 20.248 5.71771L20.249 5.71856C20.2538 5.72639 20.2574 5.73388 20.2614 5.74136L20.3081 5.81672C20.5069 6.11695 20.8217 6.31086 21.1961 6.30202C21.4028 6.29793 21.5432 6.23092 21.7472 6.11814L23.8694 4.89476C23.8708 4.89408 23.8718 4.89322 23.874 4.89288C25.7723 3.85763 26.7132 4.89884 27.1152 5.55016C27.1463 5.60664 27.1822 5.66022 27.2182 5.71057C27.417 5.97865 27.6917 6.15437 28.0401 6.14569C28.2702 6.1411 28.5286 6.00383 28.5666 5.97865L31.1112 4.51933C31.1112 4.51933 30.8509 4.12912 30.3156 3.52066C29.8369 2.97786 29.3278 3.22349 28.9234 3.42336C28.7534 3.50671 27.525 4.19886 27.525 4.19886C26.8521 4.47477 26.3279 4.17368 26.1222 3.9204C26.101 3.89352 26.0827 3.86869 26.0687 3.84419L26.0213 3.7617C25.9475 3.63803 25.8595 3.49855 25.7512 3.36076C25.6932 3.28609 25.6285 3.21141 25.5575 3.14081C25.2746 2.85674 24.8877 2.62523 24.346 2.62506C24.006 2.62506 23.6053 2.71623 23.131 2.94281Z"
        fill="url(#paint0_linear_2483_3910)" />
    <defs>
        <linearGradient id="paint0_linear_2483_3910" x1="12.4157" y1="4.67699" x2="32.1823"
            y2="-4.51185" gradientUnits="userSpaceOnUse">
            <stop stop-color="#FDB913" />
            <stop offset="0.224719" stop-color="#FFCB05" />
            <stop offset="0.393258" stop-color="#FAA61A" />
            <stop offset="0.52809" stop-color="#FFCB05" />
            <stop offset="0.646067" stop-color="#FAA61A" />
            <stop offset="0.764045" stop-color="#FFCB05" />
            <stop offset="1" stop-color="#FFCB05" />
        </linearGradient>
    </defs>
</svg>