<svg xmlns="http://www.w3.org/2000/svg" width="32" height="10" viewBox="0 0 32 10" fill="none">
    <path fill-rule="evenodd" clip-rule="evenodd"
        d="M16.4349 7.14833C16.4375 7.10184 16.4402 7.02733 16.4426 6.92521V4.96671L16.4362 4.7767C16.4347 4.73627 16.4327 4.7088 16.4307 4.69444C16.4286 4.67922 16.4253 4.66612 16.4208 4.65401C16.4061 4.6057 16.3734 4.57161 16.3244 4.55118C16.2791 4.53217 16.2122 4.52301 16.1254 4.52231V4.45568H17.2482C17.4114 4.45596 17.5589 4.46653 17.6905 4.48766C17.822 4.50864 17.928 4.53766 18.009 4.57457C18.2437 4.68542 18.3597 4.87206 18.3584 5.13758C18.3611 5.51705 18.1105 5.75947 17.5918 5.82187L17.5049 5.83581C17.6215 5.84004 17.7793 5.87877 17.8527 5.89568C17.9256 5.91244 17.997 5.93906 18.067 5.9754C18.3423 6.11316 18.4779 6.33346 18.4752 6.63814C18.4766 7.00817 18.2955 7.24876 17.9278 7.36243C17.8475 7.38525 17.7468 7.40328 17.6251 7.41638C17.5029 7.42948 17.3702 7.43624 17.2273 7.43652H16.1254V7.36976C16.2551 7.36821 16.3443 7.34849 16.3838 7.30214C16.4003 7.28637 16.412 7.26904 16.4198 7.24918C16.4277 7.22904 16.4324 7.19467 16.4349 7.14833ZM16.7808 4.54724V5.79017H17.2189C17.7284 5.78721 17.9923 5.57635 17.9951 5.1542C17.9987 4.74444 17.7205 4.54442 17.1813 4.54724H16.7808ZM18.0828 6.6049C18.08 6.31515 17.9748 6.11034 17.7651 5.99583C17.7014 5.96343 17.6205 5.9385 17.5234 5.92089C17.4264 5.90342 17.3193 5.89455 17.2022 5.89413H16.7808V7.34482H17.2022C17.5075 7.34623 17.7307 7.28947 17.8681 7.17044C17.9379 7.11339 17.9907 7.03592 18.0275 6.93873C18.0641 6.84154 18.0824 6.72998 18.0828 6.6049Z"
        fill="#3A3A3A" />
    <path
        d="M20.0823 7.35092C20.0595 7.30598 20.0435 7.2526 20.0366 7.11611L20.0346 7.07568L20.0076 7.10596C19.9755 7.14216 19.944 7.17344 19.9131 7.20006C19.8822 7.22696 19.8463 7.25443 19.806 7.28232C19.7173 7.34711 19.6319 7.39275 19.55 7.41937C19.4681 7.44586 19.3758 7.45881 19.273 7.45797C19.094 7.45867 18.9565 7.41642 18.8582 7.33317C18.8032 7.28387 18.7601 7.22203 18.7285 7.14695C18.697 7.07202 18.6809 6.99145 18.6802 6.90496C18.6823 6.58606 18.8789 6.38026 19.2809 6.28913C19.3872 6.26462 19.4997 6.24448 19.6179 6.2287C19.7365 6.21292 19.8709 6.19996 20.0212 6.18982L20.0366 5.91163C20.0369 5.81655 20.0322 5.7395 20.0229 5.68076C20.0135 5.62132 19.9981 5.56948 19.9765 5.52568C19.9168 5.40989 19.7952 5.35439 19.6194 5.35439C19.3375 5.35298 19.1846 5.48666 19.1688 5.7526C19.1671 5.79486 19.1631 5.82458 19.1576 5.84261C19.1522 5.85951 19.143 5.87205 19.13 5.8812C19.102 5.89994 19.0573 5.91078 18.9931 5.91149C18.855 5.9136 18.8032 5.87261 18.8055 5.80373C18.8063 5.73161 18.8304 5.66189 18.8786 5.5947C18.9268 5.52723 18.994 5.46863 19.0808 5.41862C19.2369 5.33242 19.4369 5.28847 19.6821 5.28777C19.9503 5.28847 20.1302 5.34904 20.2285 5.46468C20.2682 5.51342 20.2978 5.57357 20.317 5.64639C20.3361 5.71921 20.3459 5.81148 20.3457 5.92374L20.3453 5.94755L20.3432 6.05629L20.3374 6.3435L20.3331 6.73847L20.329 6.92975C20.3293 7.01976 20.3331 7.08836 20.3394 7.16512C20.3456 7.23992 20.3724 7.32331 20.4325 7.34542C20.4952 7.36852 20.5554 7.37768 20.6701 7.37838C20.7544 7.37669 20.8193 7.36712 20.8633 7.34852C20.9135 7.32725 20.9443 7.28218 20.9576 7.21823C20.9706 7.15583 20.9763 7.06089 20.9749 6.93369V5.81894C20.9777 5.66724 20.96 5.56047 20.9166 5.50469C20.8742 5.45018 20.7953 5.42665 20.6868 5.42778V5.36862L21.2838 5.32523V5.79894L21.3149 5.74372C21.4033 5.58695 21.5036 5.47609 21.6152 5.40947C21.7267 5.34284 21.8666 5.30988 22.035 5.31157C22.2881 5.30819 22.4645 5.39271 22.5677 5.56159C22.6055 5.61808 22.633 5.68625 22.6494 5.76598C22.6658 5.84585 22.674 5.94797 22.6736 6.07235V6.93369C22.6721 7.06216 22.6774 7.1578 22.6899 7.21992C22.7026 7.28387 22.7332 7.3288 22.7835 7.34951C22.8251 7.36655 22.9221 7.37585 23.0048 7.3781C23.0823 7.37571 23.1423 7.36627 23.1833 7.34838C23.2322 7.32711 23.2617 7.2819 23.2743 7.21795C23.2865 7.15583 23.2917 7.06075 23.2902 6.93369V4.90844C23.2917 4.79237 23.2869 4.7063 23.2752 4.65081C23.263 4.59291 23.233 4.55305 23.184 4.53587C23.1414 4.52093 23.0776 4.51389 22.9939 4.51361V4.45431L23.6148 4.42276C23.6071 4.56009 23.6011 4.70053 23.5972 4.84406C23.5929 4.99394 23.5909 5.12479 23.5909 5.23678V6.59733L24.2751 5.85064C24.3718 5.74387 24.4247 5.65414 24.4254 5.5823C24.4304 5.48229 24.329 5.43708 24.1625 5.42877V5.36975H25.0516V5.42975C24.9981 5.43595 24.9516 5.44567 24.9121 5.45919C24.8692 5.4737 24.825 5.49483 24.7801 5.52187C24.7344 5.54934 24.6962 5.57455 24.6652 5.59751C24.6337 5.62104 24.5965 5.65442 24.5537 5.6978C24.5108 5.74105 24.4489 5.80669 24.3674 5.89487L24.1416 6.137L24.7327 7.06314C24.8001 7.17287 24.8622 7.25048 24.9192 7.29457C24.9737 7.33655 25.0431 7.36359 25.1267 7.37641V7.43698H24.5861C24.5712 7.40684 24.5508 7.36782 24.5248 7.31993L24.4388 7.16372L24.3731 7.0461L23.9356 6.33589L23.5918 6.71903L23.5909 6.93369C23.5894 7.06075 23.5946 7.15583 23.6069 7.21809C23.6197 7.28204 23.6496 7.32725 23.6993 7.34852C23.7427 7.36697 23.8073 7.37669 23.8913 7.37838V7.43698H22.0641V7.37824C22.1879 7.37486 22.2729 7.35472 22.3069 7.30979C22.3207 7.29232 22.331 7.27246 22.3382 7.2502C22.3455 7.22781 22.3499 7.19893 22.352 7.16372C22.3545 7.13583 22.357 7.09568 22.3598 7.04286C22.3628 6.9899 22.3644 6.95341 22.3646 6.93398V6.09742C22.3653 5.89106 22.3431 5.73837 22.2962 5.64132C22.2251 5.48863 22.0964 5.41214 21.914 5.41144C21.7106 5.41074 21.5484 5.50722 21.4282 5.6978C21.383 5.76978 21.3479 5.85176 21.3226 5.94318C21.2971 6.03488 21.2843 6.12503 21.2838 6.21377V6.93369C21.2823 7.06216 21.2877 7.1578 21.3001 7.21992C21.3128 7.28387 21.3432 7.3288 21.3936 7.34951C21.4375 7.36754 21.503 7.37683 21.5884 7.37838V7.43698L20.6898 7.43684C20.61 7.43952 20.4583 7.4436 20.383 7.44262C20.3041 7.44149 20.2661 7.43318 20.1941 7.42783C20.1302 7.40923 20.1033 7.39261 20.0823 7.35092ZM19.0227 6.89256C19.0242 7.02807 19.0573 7.13822 19.1234 7.22133C19.1895 7.30486 19.2792 7.34768 19.3898 7.34979C19.5015 7.34824 19.6071 7.31922 19.706 7.26288C19.8045 7.20654 19.8822 7.13146 19.9385 7.03807C19.9728 6.97849 19.9978 6.90186 20.0135 6.80904C20.0291 6.71663 20.0369 6.60169 20.0366 6.46436V6.25095C19.8365 6.26814 19.6934 6.28687 19.5893 6.30885C19.4845 6.33096 19.392 6.36251 19.3114 6.40379C19.1201 6.49844 19.0241 6.66254 19.0227 6.89256Z"
        fill="#3A3A3A" />
    <path fill-rule="evenodd" clip-rule="evenodd"
        d="M1.44141 6.18077V6.92239C1.43985 7.04142 1.44664 7.12973 1.46191 7.18735C1.47733 7.2451 1.51042 7.28313 1.56147 7.30172C1.61252 7.32046 1.69086 7.33088 1.79649 7.33299V7.43652H0.627449V7.33299C0.727144 7.33088 0.800818 7.32046 0.848615 7.30172C0.896412 7.28313 0.927381 7.2451 0.941522 7.18735C0.955663 7.12973 0.961885 7.04142 0.96033 6.92239V4.97291C0.961885 4.85389 0.955663 4.76543 0.942088 4.70768C0.928371 4.64992 0.898675 4.61147 0.852999 4.59231C0.807182 4.57301 0.737042 4.56175 0.642156 4.55823V4.45455H1.75591C2.13135 4.453 2.40625 4.51907 2.58104 4.65246C2.75568 4.78599 2.84194 4.99644 2.83996 5.28379C2.84109 5.68777 2.68328 5.95216 2.36638 6.0771C2.28365 6.10936 2.17816 6.13457 2.05004 6.15288C1.92192 6.17105 1.77952 6.18035 1.6227 6.18077H1.44141ZM1.44141 6.06513H1.63387C1.86507 6.06442 2.03519 6.00991 2.14436 5.90173C2.20375 5.83905 2.24872 5.75707 2.27941 5.65551C2.31009 5.55409 2.32551 5.43817 2.32565 5.30773C2.32438 4.8167 2.10858 4.5709 1.67813 4.5702H1.44141V6.06513Z"
        fill="#3A3A3A" />
    <path fill-rule="evenodd" clip-rule="evenodd"
        d="M4.72217 6.30606H3.3618C3.36336 6.45059 3.37184 6.57186 3.3874 6.66976C3.40281 6.76752 3.4277 6.85696 3.46192 6.93795C3.57491 7.20023 3.74941 7.33123 3.98556 7.33123C4.11934 7.33053 4.24067 7.29137 4.34941 7.21361C4.4583 7.13586 4.54866 7.02416 4.62092 6.87823L4.71722 6.9419C4.62248 7.12966 4.5068 7.26756 4.3702 7.3556C4.2336 7.44364 4.06687 7.48716 3.87003 7.48632C3.56034 7.48237 3.27568 7.38377 3.09722 7.1908C2.9189 6.99768 2.82798 6.73315 2.82444 6.39748C2.82798 6.05928 2.91593 5.79179 3.08817 5.59473C3.26027 5.39781 3.53531 5.2971 3.83157 5.29273C4.02869 5.29329 4.21889 5.33795 4.35394 5.42683C4.48898 5.51585 4.58854 5.646 4.65288 5.81729C4.67381 5.87419 4.68965 5.93927 4.70054 6.01252C4.71128 6.08576 4.71849 6.18366 4.72217 6.30606ZM3.36562 6.19084H4.21663C4.21323 6.0683 4.20659 5.96955 4.19683 5.89476C4.18721 5.81996 4.17194 5.75306 4.15115 5.69418C4.07932 5.48542 3.96888 5.38218 3.82011 5.38415C3.65325 5.38556 3.52867 5.50205 3.44651 5.7339C3.42558 5.7939 3.40875 5.85969 3.39602 5.9311C3.38329 6.00252 3.37311 6.08914 3.36562 6.19084Z"
        fill="#3A3A3A" />
    <path
        d="M4.80914 5.3504L5.56371 5.29843C5.56767 5.37336 5.57078 5.43647 5.57276 5.48732C5.57474 5.53831 5.57573 5.58338 5.57573 5.62226V5.74227C5.73962 5.44379 5.9376 5.29307 6.16979 5.2904C6.27005 5.29237 6.35151 5.32153 6.41415 5.37787C6.47665 5.43421 6.50904 5.50647 6.51088 5.59437C6.50946 5.66748 6.48231 5.72607 6.42956 5.77016C6.37696 5.81439 6.30781 5.83707 6.22197 5.8382C6.11888 5.84144 6.0561 5.7989 6.03333 5.7103C6.01848 5.6555 6.00307 5.61817 5.98709 5.59831C5.97125 5.57845 5.94778 5.56916 5.91695 5.57028H5.90889C5.82998 5.57704 5.75504 5.63959 5.68419 5.75819C5.65209 5.81749 5.62791 5.88285 5.61179 5.95469C5.59581 6.02638 5.58775 6.10878 5.58775 6.20203V6.94168C5.58619 7.05972 5.59199 7.14677 5.605 7.20269C5.61801 7.25861 5.64756 7.29523 5.69366 7.31256C5.73962 7.32974 5.81146 7.33946 5.90889 7.34143V7.4375H4.79316V7.34143C4.88409 7.34186 4.9514 7.33312 4.99524 7.31509C5.03907 7.29721 5.0675 7.25974 5.08065 7.20269C5.09366 7.1455 5.09946 7.05859 5.09818 6.94168V5.83411C5.10186 5.66931 5.08531 5.56225 5.04841 5.51281C5.01164 5.46337 4.93174 5.44126 4.80914 5.44633V5.3504Z"
        fill="#3A3A3A" />
    <path
        d="M7.40727 5.29857L7.41137 5.69438C7.57385 5.42787 7.80661 5.29321 8.10966 5.29054C8.41807 5.28857 8.60799 5.42844 8.67954 5.71044C8.76679 5.56521 8.86634 5.45872 8.97806 5.39097C9.08991 5.32336 9.22044 5.28983 9.36991 5.29054C9.60606 5.29195 9.78 5.36914 9.89171 5.52239C9.93541 5.58042 9.96638 5.65142 9.98504 5.73537C10.0036 5.81932 10.0126 5.9282 10.0121 6.06216V6.94168C10.0108 7.05859 10.0166 7.1455 10.0296 7.20255C10.0427 7.25974 10.0712 7.29721 10.115 7.31509C10.1588 7.33312 10.2261 7.34186 10.3172 7.34143V7.4375H9.22949V7.34143C9.31645 7.34186 9.38094 7.33312 9.42308 7.31509C9.46522 7.29721 9.49265 7.25974 9.50538 7.20255C9.51811 7.1455 9.52376 7.05859 9.52249 6.94168V6.0661C9.52334 5.85608 9.49746 5.70452 9.44471 5.61141C9.39183 5.51831 9.30684 5.47267 9.18933 5.4745C9.0482 5.47182 8.92913 5.54507 8.83212 5.69438C8.74855 5.81904 8.70697 5.95356 8.70768 6.09822V6.94168C8.70641 7.05859 8.71207 7.1455 8.72493 7.20255C8.73766 7.25974 8.76552 7.29721 8.80822 7.31509C8.85093 7.33312 8.9164 7.34186 9.00464 7.34143V7.4375H7.92907V7.34143C8.01604 7.34186 8.08067 7.33312 8.12267 7.31509C8.16481 7.29721 8.19224 7.25974 8.20497 7.20255C8.21769 7.1455 8.22335 7.05859 8.22208 6.94168V6.06216C8.22406 5.66635 8.11574 5.47041 7.89697 5.4745C7.7608 5.47929 7.64668 5.54366 7.55476 5.66733C7.46284 5.79115 7.41505 5.94539 7.41137 6.13019V6.94168C7.4101 7.05986 7.41575 7.14747 7.42848 7.20438C7.44107 7.26143 7.4685 7.29861 7.51064 7.31608C7.55278 7.33355 7.61726 7.342 7.70423 7.34143V7.4375H6.6165V7.34143C6.70757 7.342 6.77488 7.33355 6.81872 7.31608C6.86256 7.29861 6.89112 7.26143 6.90413 7.20438C6.91714 7.14747 6.92294 7.05986 6.92167 6.94168V5.83031C6.92577 5.66762 6.9095 5.56225 6.87245 5.51394C6.83555 5.46577 6.75296 5.44323 6.6247 5.44647V5.35054L7.40727 5.29857Z"
        fill="#3A3A3A" />
    <path
        d="M13.1708 5.48106V6.8164C13.1706 6.90331 13.1739 6.97529 13.1803 7.03219C13.1868 7.0891 13.1969 7.13713 13.2109 7.17615C13.2279 7.2208 13.2541 7.25644 13.2897 7.28306C13.3252 7.30968 13.3645 7.32349 13.4075 7.32405C13.4932 7.32278 13.5868 7.28151 13.6885 7.2001L13.7446 7.3001C13.5836 7.43462 13.4002 7.50125 13.1948 7.49998C12.9734 7.4966 12.8222 7.42336 12.7413 7.2801C12.7255 7.24841 12.713 7.21221 12.7043 7.17164C12.6955 7.13107 12.6894 7.07628 12.686 7.0074C12.6826 6.93838 12.6809 6.84527 12.6811 6.72836V5.48106H12.4523V5.36119C12.5397 5.35781 12.6138 5.3395 12.6746 5.30611C12.7354 5.27273 12.7884 5.22047 12.8337 5.1492C12.8692 5.09497 12.8984 5.03454 12.9215 4.96834C12.9444 4.90199 12.9646 4.81973 12.9821 4.72141L13.1828 4.70141C13.1801 4.75437 13.1779 4.80804 13.1762 4.86241C13.1743 4.91678 13.173 4.98228 13.1722 5.05891C13.1712 5.13539 13.1708 5.23357 13.1708 5.35302H13.6564V5.48106H13.1708Z"
        fill="#3A3A3A" />
    <path fill-rule="evenodd" clip-rule="evenodd"
        d="M12.4503 7.35243V7.43695C12.3328 7.44469 12.2854 7.44455 12.162 7.44469C12.064 7.44484 11.9626 7.44314 11.8784 7.41159C11.8264 7.39215 11.7973 7.37553 11.7585 7.33468C11.7314 7.29186 11.7141 7.28961 11.7054 7.1703C11.6018 7.28172 11.4939 7.3637 11.382 7.4161C11.2698 7.46864 11.1488 7.49456 11.0191 7.49414C10.8265 7.49202 10.6759 7.43906 10.5671 7.33511C10.4583 7.23115 10.403 7.08832 10.401 6.90633C10.4003 6.5632 10.6145 6.34994 11.0433 6.2667C11.2366 6.22937 11.4559 6.20416 11.7014 6.19077V5.93089C11.7035 5.7227 11.6813 5.57832 11.6352 5.49817C11.5891 5.41789 11.5068 5.37957 11.3883 5.38323C11.2626 5.38056 11.1729 5.42577 11.1195 5.51916C11.1 5.55114 11.0858 5.58804 11.0768 5.62959C11.0679 5.67115 11.0607 5.7289 11.0553 5.80299C11.052 5.87412 11.0313 5.92469 10.9931 5.95484C10.9548 5.98498 10.8938 5.99963 10.8104 5.99893C10.6244 5.99752 10.5308 5.93624 10.5294 5.81496C10.5301 5.74425 10.552 5.67678 10.5953 5.61255C10.6384 5.54832 10.6995 5.49184 10.7784 5.4431C10.9456 5.34055 11.1649 5.28999 11.4365 5.29125C11.7129 5.28999 11.9108 5.3445 12.0306 5.45521C12.0845 5.50578 12.1241 5.57043 12.1494 5.64903C12.1748 5.72763 12.1873 5.82821 12.1871 5.95089L12.183 6.29867L12.1791 6.64645C12.1757 6.7604 12.1744 6.83238 12.175 6.86239C12.1736 7.00648 12.1782 7.11185 12.1887 7.17819C12.1992 7.24468 12.2108 7.27383 12.2546 7.30989C12.3312 7.35356 12.3969 7.35229 12.4503 7.35243ZM11.7014 6.59053V6.28275C11.4141 6.30219 11.2103 6.35516 11.0899 6.44164C10.9696 6.52813 10.9112 6.66307 10.9147 6.84647C10.916 6.99029 10.9457 7.10438 11.0035 7.18875C11.0615 7.27313 11.1403 7.31623 11.2398 7.3182C11.3216 7.31736 11.3969 7.29398 11.4661 7.24763C11.5352 7.20157 11.5897 7.13706 11.6291 7.05438C11.655 7.00367 11.6735 6.94197 11.6849 6.86887C11.6962 6.79576 11.7017 6.70308 11.7014 6.59053Z"
        fill="#3A3A3A" />
    <path fill-rule="evenodd" clip-rule="evenodd"
        d="M15.9061 7.35215V7.43667C15.7886 7.44441 15.7412 7.44455 15.6178 7.44469C15.5198 7.44484 15.4184 7.44314 15.3342 7.41159C15.2822 7.39215 15.2531 7.37553 15.2143 7.33468C15.1872 7.29186 15.1699 7.28961 15.1612 7.1703C15.0576 7.28172 14.9497 7.3637 14.8376 7.4161C14.7256 7.46864 14.6046 7.49456 14.4749 7.49414C14.2823 7.49202 14.1317 7.43906 14.0229 7.33511C13.9141 7.23115 13.8588 7.08832 13.8568 6.90633C13.8561 6.5632 14.0702 6.34994 14.4991 6.2667C14.6924 6.22937 14.9117 6.20416 15.1572 6.19077V5.93089C15.1593 5.7227 15.1371 5.57832 15.091 5.49817C15.0448 5.41789 14.9625 5.37957 14.8441 5.38323C14.7184 5.38056 14.6287 5.42577 14.5753 5.51916C14.5558 5.55114 14.5415 5.58804 14.5326 5.6296C14.5237 5.67115 14.5165 5.7289 14.5111 5.80299C14.5078 5.87413 14.487 5.92469 14.4489 5.95498C14.4105 5.98498 14.3496 5.99963 14.2662 5.99893C14.0802 5.99752 13.9866 5.93624 13.9852 5.81496C13.9859 5.74425 14.0078 5.67678 14.0511 5.61255C14.0942 5.54832 14.1553 5.49184 14.2341 5.4431C14.4014 5.34055 14.6207 5.28999 14.8923 5.29125C15.1686 5.28999 15.3666 5.3445 15.4864 5.45521C15.5403 5.50578 15.5799 5.57043 15.6052 5.64903C15.6306 5.72763 15.6431 5.82821 15.6429 5.95089L15.6388 6.29867L15.6349 6.64645C15.6315 6.76041 15.6302 6.83238 15.6308 6.86239C15.6294 7.00648 15.634 7.11185 15.6445 7.17833C15.655 7.24468 15.6666 7.27383 15.7104 7.30989C15.787 7.35356 15.8527 7.35201 15.9061 7.35215ZM15.1572 6.59053V6.28275C14.8698 6.30219 14.6659 6.35516 14.5457 6.44164C14.4254 6.52813 14.367 6.66307 14.3705 6.84647C14.3718 6.99029 14.4015 7.10438 14.4593 7.18875C14.5173 7.27313 14.5961 7.31623 14.6956 7.3182C14.7774 7.31736 14.8527 7.29398 14.9219 7.24763C14.991 7.20143 15.0453 7.13706 15.0849 7.05424C15.1108 7.00381 15.1293 6.94197 15.1406 6.86887C15.152 6.7959 15.1575 6.70308 15.1572 6.59053Z"
        fill="#3A3A3A" />
    <path
        d="M24.1704 2.43545L24.1625 2.5894L27.1283 6.05494L27.2348 6.07227L27.2482 6.06565L27.3003 5.96958L26.0355 1.75257L25.8209 1.60847L24.1704 2.43545Z"
        fill="#0097B9" />
    <path fill-rule="evenodd" clip-rule="evenodd"
        d="M25.0475 2.75736L27.2408 6.08105L27.1241 6.06204L24.1545 2.58749L25.0475 2.75736Z"
        fill="#005874" />
    <path d="M25.8239 1.60416L26.0379 1.74882L25.3734 2.62891L25.0648 2.49453L25.8239 1.60416Z"
        fill="#2FB8E7" />
    <path d="M25.0647 2.49497L25.0474 2.75781L24.1546 2.58794L24.1639 2.43511L25.0647 2.49497Z"
        fill="#007592" />
    <path d="M25.3733 2.62894L26.0392 1.74745L27.32 5.96798L27.2548 6.07715L25.3733 2.62894Z"
        fill="#007592" />
    <path
        d="M28.9299 1.52526L30.8476 2.40351L30.8511 2.65128L27.7041 7.39975L27.5604 7.4375L27.5392 7.42778L27.4943 7.32073L28.7628 1.6178L28.9299 1.52526Z"
        fill="#80B13A" />
    <path d="M30.8578 2.65068L27.7132 7.40943L27.5524 7.45605L29.5736 2.75956L30.8578 2.65068Z"
        fill="#6E9123" />
    <path d="M29.2115 2.56025L27.5344 7.44043L27.4871 7.3207L28.7605 1.612L29.2115 2.56025Z"
        fill="#3F7937" />
    <path d="M30.8527 2.40353L30.8578 2.65074L29.5736 2.75977L29.5012 2.421L30.8527 2.40353Z"
        fill="#A5C550" />
    <path d="M29.5013 2.42053L29.2114 2.56055L28.7603 1.61215L28.926 1.51904L29.5013 2.42053Z"
        fill="#5D8B27" />
    <path
        d="M26.0006 0.174227L26.077 0.0277338L28.5322 0.00125265L28.6908 0.165353L27.5146 4.07994L27.44 4.12305L27.4376 4.12291L27.357 4.06882L26.0006 0.174227Z"
        fill="#D81936" />
    <path
        d="M27.1287 0.437319L26.9518 0.645508L25.9923 0.169548L26.0698 0.0247456L27.1287 0.437319Z"
        fill="#AF2C35" />
    <path d="M25.9922 0.169644L26.9518 0.645604L27.4382 4.13086L27.3531 4.07311L25.9922 0.169644Z"
        fill="#762624" />
    <path d="M27.4133 0.646167L28.6951 0.163587L27.5205 4.08522L27.4399 4.13086L27.4133 0.646167Z"
        fill="#B22B37" />
    <path
        d="M27.1288 0.437732L27.4133 0.646484L28.6952 0.163904L28.5347 0.000649214L27.1288 0.437732Z"
        fill="#DC505E" />
</svg>