<svg width="94" height="20" viewBox="0 0 94 20" fill="none" xmlns="http://www.w3.org/2000/svg">
<path d="M9.12322 19.0989H9.02731C8.94196 19.0768 0.0890682 17.7495 0.514882 4.74687C0.525784 4.595 0.584161 4.4504 0.681754 4.33353C0.834242 4.13021 2.35048 2.39627 8.95347 0.705484C9.07023 0.675971 9.1925 0.675971 9.30927 0.705484C15.9046 2.37421 17.4218 4.10815 17.5733 4.33353C17.6686 4.45613 17.722 4.60605 17.7258 4.76126C18.1612 17.7419 9.31119 19.0768 9.2172 19.0912L9.12322 19.0989ZM1.96111 5.05856C1.71464 15.8478 8.19487 17.4369 9.11554 17.6114C10.0516 17.4666 16.5308 15.8698 16.2767 5.05856C15.7972 4.6596 14.0057 3.41189 9.12226 2.15651C4.26185 3.42628 2.46173 4.66632 1.96111 5.05856Z" fill="#4C6E84"/>
<path d="M8.06359 12.315C7.96816 12.3155 7.87355 12.2973 7.78518 12.2612C7.69681 12.2252 7.61641 12.1721 7.54859 12.1049L5.85013 10.4209C5.77019 10.3566 5.70478 10.2761 5.65822 10.1847C5.61165 10.0933 5.58498 9.99304 5.57997 9.89058C5.57496 9.78812 5.59171 9.68577 5.62914 9.59026C5.66656 9.49475 5.7238 9.40825 5.79708 9.33647C5.87036 9.26469 5.95802 9.20925 6.05429 9.17382C6.15055 9.13838 6.25323 9.12374 6.35557 9.13087C6.4579 9.138 6.55756 9.16674 6.64798 9.21519C6.7384 9.26364 6.81752 9.3307 6.88014 9.41195L8.06263 10.6021L11.3934 7.27137C11.46 7.19939 11.5405 7.14159 11.63 7.10144C11.7195 7.0613 11.8161 7.03963 11.9142 7.03773C12.0123 7.03584 12.1097 7.05376 12.2007 7.09042C12.2917 7.12708 12.3743 7.18172 12.4437 7.25108C12.513 7.32044 12.5677 7.40308 12.6043 7.49406C12.641 7.58504 12.6589 7.68248 12.657 7.78055C12.6551 7.87862 12.6335 7.97529 12.5933 8.06479C12.5532 8.15428 12.4954 8.23475 12.4234 8.30138L8.60641 12.1184C8.53368 12.1858 8.4479 12.2376 8.35438 12.2706C8.26086 12.3035 8.16157 12.317 8.06263 12.3102L8.06359 12.315Z" fill="#4C6E84"/>
<path d="M28.7356 6.93771V7.7433H25.2534V6.93771H26.5308V2.81384L25.6379 3.60505C25.5923 3.6444 25.5376 3.67176 25.4787 3.68465C25.433 3.692 25.3864 3.692 25.3406 3.68465C25.2936 3.66837 25.2512 3.64107 25.2169 3.60505C25.1856 3.58657 25.1585 3.56174 25.1373 3.53216L24.7959 3.07087L26.714 1.43091H27.6059V6.93771H28.7356Z" fill="#4C6E84"/>
<path d="M34.461 4.59307C34.4708 5.08252 34.4121 5.57094 34.2865 6.0441C34.1885 6.40659 34.0211 6.74663 33.7935 7.04534C33.6045 7.30059 33.355 7.50491 33.0675 7.63994C32.7787 7.76447 32.4676 7.8287 32.1531 7.8287C31.8386 7.8287 31.5274 7.76447 31.2386 7.63994C30.9506 7.50577 30.7009 7.3013 30.5126 7.04534C30.2852 6.74749 30.1199 6.40702 30.0264 6.0441C29.9008 5.57094 29.8421 5.08252 29.8519 4.59307C29.841 4.10357 29.8998 3.61501 30.0264 3.14205C30.1196 2.7847 30.2826 2.44931 30.5059 2.1552C30.6942 1.89924 30.9439 1.69476 31.2319 1.56059C31.5194 1.43334 31.8316 1.37143 32.1459 1.37933C32.4608 1.3764 32.7727 1.44184 33.0598 1.57114C33.3473 1.70617 33.5968 1.91049 33.7858 2.16575C34.0134 2.46446 34.1808 2.80449 34.2788 3.16698C34.4056 3.6325 34.4666 4.1135 34.46 4.59595L34.461 4.59307ZM33.3504 4.59307C33.3566 4.213 33.3225 3.83335 33.2488 3.46045C33.2048 3.20396 33.1138 2.95782 32.9802 2.73446C32.8913 2.57451 32.7581 2.44363 32.5966 2.35755C32.4567 2.2889 32.3027 2.25407 32.1468 2.2559C31.9946 2.25995 31.8455 2.2997 31.7114 2.37194C31.5519 2.45839 31.421 2.58933 31.3345 2.74884C31.201 2.97221 31.11 3.21835 31.066 3.47483C31.0012 3.84354 30.9745 4.21794 30.9864 4.59211C30.9789 4.97165 31.011 5.35093 31.0823 5.72378C31.1263 5.98027 31.2173 6.22641 31.3508 6.44977C31.4373 6.60928 31.5682 6.74022 31.7277 6.82668C31.8685 6.89272 32.022 6.92741 32.1775 6.92833C32.333 6.92675 32.4863 6.8921 32.6273 6.82668C32.7888 6.74059 32.922 6.60972 33.0109 6.44977C33.1444 6.22641 33.2355 5.98027 33.2795 5.72378C33.3435 5.35017 33.3679 4.97085 33.3524 4.59211L33.3504 4.59307Z" fill="#4C6E84"/>
<path d="M39.8584 4.59359C39.8682 5.08304 39.8095 5.57145 39.6839 6.04462C39.5859 6.40711 39.4185 6.74714 39.1909 7.04585C39.0019 7.30111 38.7524 7.50542 38.4649 7.64046C37.8633 7.87062 37.1966 7.86274 36.6006 7.6184C36.3143 7.48145 36.0653 7.27748 35.8746 7.02379C35.6518 6.72402 35.489 6.38405 35.3951 6.02256C35.2695 5.5494 35.2107 5.06098 35.2205 4.57153C35.2096 4.08203 35.2684 3.59347 35.3951 3.12051C35.4997 2.77025 35.6695 2.44291 35.8957 2.15571C36.0863 1.90203 36.3354 1.69806 36.6217 1.56111C36.9026 1.43655 37.2072 1.37439 37.5145 1.37889C37.8295 1.37596 38.1413 1.4414 38.4285 1.5707C38.716 1.70573 38.9655 1.91005 39.1545 2.1653C39.3977 2.4604 39.5802 2.80067 39.6916 3.16654C39.8134 3.63213 39.8695 4.11246 39.8584 4.59359ZM38.7479 4.59359C38.7539 4.21384 38.7199 3.83451 38.6462 3.46192C38.6022 3.20544 38.5112 2.9593 38.3777 2.73593C38.2887 2.57598 38.1555 2.44511 37.9941 2.35903C37.8439 2.29061 37.6791 2.26062 37.5145 2.27176C37.3586 2.26909 37.2044 2.30396 37.0647 2.37341C36.9052 2.45987 36.7743 2.59081 36.6878 2.75032C36.5543 2.97368 36.4633 3.21982 36.4193 3.47631C36.348 3.84916 36.3159 4.22844 36.3234 4.60797C36.3159 4.98751 36.348 5.36679 36.4193 5.73964C36.4633 5.99613 36.5543 6.24227 36.6878 6.46563C36.7743 6.62514 36.9052 6.75608 37.0647 6.84254C37.2055 6.90859 37.359 6.94327 37.5145 6.94419C37.67 6.94261 37.8233 6.90796 37.9643 6.84254C38.1258 6.75645 38.259 6.62558 38.3479 6.46563C38.4815 6.24227 38.5725 5.99613 38.6165 5.73964C38.7011 5.36182 38.7449 4.97598 38.7469 4.58879L38.7479 4.59359Z" fill="#4C6E84"/>
<path d="M43.6649 2.96938C43.6666 3.19057 43.6246 3.40993 43.5412 3.61481C43.4686 3.79678 43.36 3.96218 43.2218 4.10104C43.0907 4.23636 42.9325 4.34256 42.7576 4.41273C42.5826 4.48444 42.3953 4.52126 42.2062 4.5211C42.0076 4.52287 41.8105 4.48606 41.626 4.41273C41.4427 4.34621 41.2767 4.23974 41.1397 4.10104C41.0151 3.95735 40.9214 3.78956 40.8645 3.6081C40.7898 3.40122 40.7531 3.18257 40.7561 2.96266C40.7525 2.73801 40.7892 2.51453 40.8645 2.30284C40.9278 2.12096 41.0282 1.95419 41.1593 1.81306C41.2904 1.67193 41.4493 1.5595 41.626 1.48286C41.9995 1.33774 42.4138 1.33774 42.7873 1.48286C42.9622 1.5566 43.1202 1.66528 43.2515 1.80222C43.3862 1.94661 43.49 2.11696 43.5565 2.30284C43.6332 2.51816 43.6699 2.74567 43.6649 2.97417V2.96938ZM45.7652 1.61905C45.8033 1.57257 45.8472 1.53101 45.8956 1.49533C45.9587 1.45566 46.0311 1.43318 46.1056 1.43012H46.8892L42.2177 7.5766C42.1833 7.62443 42.1388 7.66406 42.0873 7.69264C42.0218 7.7321 41.9457 7.74989 41.8695 7.74347H41.0755L45.7652 1.61905ZM42.8631 2.96938C42.8669 2.8273 42.8498 2.68545 42.8123 2.54836C42.784 2.44871 42.7372 2.35532 42.6742 2.27311C42.6109 2.21915 42.5366 2.17956 42.4565 2.15707C42.2972 2.09958 42.1228 2.09958 41.9635 2.15707C41.8888 2.19264 41.8232 2.2448 41.7717 2.30956C41.7092 2.39133 41.6647 2.48548 41.6413 2.58576C41.6038 2.72285 41.5867 2.86471 41.5905 3.00678C41.5862 3.14414 41.6033 3.28134 41.6413 3.41341C41.6657 3.51099 41.7101 3.60243 41.7717 3.68194C41.822 3.74449 41.8883 3.79223 41.9635 3.82004C42.1228 3.87753 42.2972 3.87753 42.4565 3.82004C42.5313 3.79133 42.5973 3.74375 42.6483 3.68194C42.71 3.60141 42.7568 3.51046 42.7864 3.41341C42.8283 3.26967 42.8455 3.11984 42.8372 2.97033L42.8631 2.96938ZM47.2133 6.26272C47.2175 6.4834 47.1781 6.70274 47.0973 6.90815C47.0214 7.08995 46.9106 7.25514 46.7712 7.39438C46.6414 7.53128 46.4829 7.63772 46.307 7.70607C46.132 7.77778 45.9447 7.8146 45.7556 7.81444C45.557 7.81621 45.3599 7.7794 45.1754 7.70607C45.0032 7.63591 44.848 7.53 44.7198 7.39534C44.5868 7.25519 44.4831 7.08987 44.4148 6.90911C44.3402 6.70223 44.3035 6.48358 44.3065 6.26367C44.303 6.03528 44.3397 5.80806 44.4148 5.59235C44.4767 5.4106 44.5766 5.24413 44.708 5.10406C44.8393 4.96398 44.9989 4.85352 45.1763 4.78004C45.3609 4.70671 45.5579 4.6699 45.7565 4.67167C45.9552 4.66906 46.1524 4.70589 46.3368 4.78004C46.5111 4.85115 46.6691 4.95723 46.8009 5.09173C46.9356 5.23612 47.0394 5.40646 47.1059 5.59235C47.1836 5.80759 47.2229 6.03483 47.2219 6.26367L47.2133 6.26272ZM46.379 6.26272C46.3816 6.11893 46.3671 5.97534 46.3358 5.83498C46.3147 5.73886 46.2753 5.64769 46.2198 5.56645C46.1677 5.49744 46.0972 5.44457 46.0164 5.41397C45.9374 5.38542 45.854 5.37082 45.77 5.37081C45.688 5.36968 45.6066 5.38433 45.5302 5.41397C45.4494 5.44457 45.3789 5.49744 45.3269 5.56645C45.2686 5.6471 45.2266 5.7383 45.2032 5.83498C45.1689 5.97497 45.1519 6.1186 45.1523 6.26272C45.1517 6.39989 45.1687 6.53657 45.2032 6.66935C45.2281 6.76551 45.27 6.85645 45.3269 6.93788C45.3817 7.00056 45.4517 7.04812 45.5302 7.07598C45.6066 7.10561 45.688 7.12027 45.77 7.11914C45.854 7.11912 45.9374 7.10452 46.0164 7.07598C46.0949 7.04812 46.1649 7.00056 46.2198 6.93788C46.2789 6.85685 46.323 6.76591 46.3502 6.66935C46.3794 6.53589 46.3917 6.39925 46.3866 6.26272H46.379Z" fill="#4C6E84"/>
<path d="M54.4216 2.59038C54.3976 2.64265 54.3602 2.68765 54.3132 2.72081C54.2711 2.75094 54.2201 2.76614 54.1684 2.76396C54.0998 2.7594 54.0337 2.73691 53.9766 2.69875L53.7224 2.54626C53.6116 2.48414 53.495 2.43307 53.3743 2.39377C53.0823 2.31155 52.7734 2.31155 52.4814 2.39377C52.367 2.42711 52.2609 2.48395 52.1697 2.56065C52.0914 2.62801 52.0294 2.71229 51.9885 2.80712C51.9428 2.90725 51.9205 3.01646 51.9233 3.12648C51.9185 3.26191 51.9651 3.39415 52.0537 3.49667C52.143 3.60363 52.2542 3.69027 52.3798 3.75081C52.5304 3.82416 52.6854 3.88821 52.8439 3.94262L53.381 4.11717C53.5623 4.18238 53.7435 4.25527 53.9181 4.33487C54.0876 4.41484 54.2441 4.51992 54.3822 4.64656C54.5204 4.77832 54.6312 4.93606 54.7083 5.11073C54.7991 5.32248 54.8414 5.55186 54.832 5.78206C54.8365 6.05495 54.7873 6.32607 54.6872 6.57998C54.5942 6.82415 54.4481 7.04461 54.2595 7.22541C54.0674 7.41945 53.8344 7.5682 53.5776 7.66082C53.2812 7.77302 52.9661 7.82707 52.6492 7.82002C52.4418 7.8225 52.2349 7.80061 52.0326 7.7548C51.8389 7.71797 51.6494 7.66207 51.4668 7.58793C51.2927 7.51553 51.1252 7.42825 50.9661 7.32707C50.8252 7.2288 50.6965 7.1142 50.5825 6.98565L50.9239 6.42653C50.9537 6.38367 50.9936 6.34877 51.04 6.32488C51.0829 6.29652 51.1333 6.2815 51.1848 6.28172C51.2694 6.28594 51.3505 6.31645 51.4169 6.36899C51.5042 6.43421 51.6087 6.49942 51.7219 6.57231C51.8502 6.65049 51.9865 6.71478 52.1285 6.76412C52.3081 6.82659 52.4975 6.85615 52.6876 6.85139C52.9729 6.87311 53.2564 6.79065 53.4855 6.6193C53.5776 6.53231 53.6493 6.42612 53.6958 6.30828C53.7422 6.19043 53.7621 6.06382 53.7541 5.93742C53.7636 5.79135 53.7196 5.6468 53.6303 5.53079C53.5432 5.41984 53.4316 5.33056 53.3043 5.26993C53.1502 5.18273 52.9872 5.11231 52.818 5.0599L52.281 4.89878C52.1 4.84072 51.9231 4.77056 51.7516 4.68876C51.5878 4.61654 51.436 4.5195 51.3018 4.40104C51.1615 4.25995 51.0507 4.09239 50.9757 3.9081C50.888 3.67636 50.846 3.42982 50.852 3.1821C50.8511 2.95118 50.8981 2.72259 50.9901 2.51078C51.082 2.29212 51.2178 2.09464 51.3891 1.93056C51.5741 1.75737 51.791 1.62186 52.0278 1.5316C52.3028 1.42504 52.596 1.37324 52.8909 1.37911C53.2385 1.37545 53.5841 1.43057 53.9133 1.54215C54.2128 1.64936 54.487 1.81717 54.7189 2.03509L54.4216 2.59038Z" fill="#4C6E84"/>
<path d="M57.3745 2.3746V4.12293H59.5515V5.05895H57.3745V6.80728H60.1682V7.7433H56.1987V1.43091H60.1672V2.3746H57.3745Z" fill="#4C6E84"/>
<path d="M65.74 6.2544C65.7715 6.25325 65.8029 6.2592 65.8318 6.27182C65.8606 6.28444 65.8863 6.3034 65.9069 6.32729L66.3711 6.82791C66.1166 7.13949 65.7932 7.38769 65.4264 7.55294C65.0013 7.72891 64.5437 7.81291 64.0837 7.79941C63.6512 7.80544 63.2219 7.72388 62.8217 7.55965C62.4619 7.4092 62.138 7.18434 61.8712 6.89983C61.5994 6.60459 61.3917 6.25615 61.2613 5.87654C61.1152 5.46179 61.0441 5.02437 61.0513 4.58471C61.045 4.14162 61.1214 3.70124 61.2766 3.28618C61.4173 2.90894 61.6348 2.5651 61.9155 2.27649C62.1962 1.98788 62.5338 1.76083 62.907 1.60978C63.3034 1.45156 63.727 1.37271 64.1538 1.37769C64.5712 1.36852 64.9861 1.44523 65.3727 1.60306C65.7097 1.74351 66.0191 1.94255 66.2867 2.19095L65.8944 2.73473C65.8663 2.77034 65.8341 2.80252 65.7985 2.83063C65.7516 2.84656 65.7007 2.84656 65.6537 2.83063C65.6086 2.84379 65.5607 2.84379 65.5156 2.83063L65.3631 2.74336L65.1713 2.61964C65.0935 2.57344 65.012 2.53366 64.9277 2.50072C64.8197 2.45829 64.708 2.42617 64.594 2.40482C64.4501 2.38067 64.3044 2.36848 64.1586 2.36838C63.8918 2.36463 63.6272 2.41657 63.3817 2.52086C63.1486 2.61487 62.9418 2.76432 62.7795 2.95627C62.6003 3.16877 62.4667 3.4159 62.3872 3.68226C62.2894 3.9844 62.2427 4.30076 62.2491 4.61828C62.2435 4.9394 62.2952 5.25895 62.4016 5.56198C62.483 5.83057 62.6217 6.07828 62.8082 6.28797C62.9747 6.47545 63.1803 6.62409 63.4105 6.72337C63.6396 6.82308 63.8866 6.87497 64.1365 6.87586C64.2815 6.88405 64.4269 6.88405 64.5719 6.87586C64.6924 6.85863 64.8114 6.83202 64.9277 6.79626C65.0363 6.75576 65.1407 6.70468 65.2394 6.64377C65.3408 6.57877 65.437 6.50599 65.5271 6.42607L65.6144 6.36085C65.6425 6.31202 65.686 6.2739 65.7381 6.25248L65.74 6.2544Z" fill="#4C6E84"/>
<path d="M70.0578 6.80153C70.2666 6.80228 70.4737 6.76288 70.6677 6.68548C70.8397 6.61412 70.9934 6.50497 71.1175 6.36612C71.2469 6.2238 71.345 6.05585 71.4052 5.87318C71.4721 5.66204 71.5045 5.44151 71.5011 5.22007V1.43091H72.6721V5.20377C72.6728 5.5576 72.6115 5.90881 72.4909 6.24145C72.3745 6.54761 72.1966 6.82667 71.9682 7.06143C71.737 7.29937 71.4573 7.48482 71.1482 7.6052C70.4443 7.85664 69.6751 7.85664 68.9712 7.6052C68.6612 7.48646 68.3812 7.30079 68.1512 7.06143C67.9206 6.82844 67.7424 6.54888 67.6285 6.24145C67.5079 5.90881 67.4466 5.5576 67.4473 5.20377V1.43091H68.6231V5.21144C68.6197 5.43288 68.6521 5.65341 68.719 5.86455C68.7792 6.0495 68.8772 6.21996 69.0067 6.36516C69.1307 6.50401 69.2845 6.61316 69.4565 6.68453C69.6477 6.76117 69.8517 6.80087 70.0578 6.80153Z" fill="#4C6E84"/>
<path d="M79.2511 7.74238H78.1961C78.1082 7.74863 78.0203 7.72933 77.943 7.68679C77.8658 7.64425 77.8025 7.5803 77.7607 7.50262L76.4324 5.48864C76.3907 5.42532 76.3366 5.37116 76.2732 5.32944C76.1878 5.29614 76.0963 5.28143 76.0047 5.28628H75.5041V7.74238H74.3389V1.42998H76.2569C76.6263 1.4233 76.9948 1.46718 77.3522 1.56041C77.6154 1.64016 77.8615 1.76795 78.0782 1.93732C78.2694 2.0894 78.4192 2.28733 78.5136 2.51274C78.6051 2.74383 78.6519 2.99018 78.6517 3.23873C78.654 3.44097 78.6216 3.6421 78.5558 3.83334C78.4957 4.01882 78.4049 4.19291 78.2872 4.34834C78.1657 4.50714 78.0186 4.64457 77.8518 4.75497C77.669 4.87713 77.4685 4.9703 77.2572 5.03118C77.3329 5.07367 77.4034 5.12485 77.4673 5.18366C77.5348 5.24531 77.5936 5.31599 77.6418 5.39369L79.2511 7.74238ZM76.2397 4.44137C76.4366 4.44517 76.6328 4.41566 76.8199 4.35409C76.9694 4.30741 77.1077 4.23073 77.2265 4.12872C77.3293 4.03238 77.4079 3.91309 77.4557 3.78059C77.5102 3.64286 77.5385 3.49617 77.5392 3.34806C77.5453 3.21138 77.5205 3.07508 77.4665 2.94936C77.4125 2.82363 77.3308 2.71175 77.2275 2.62207C76.9429 2.43299 76.6036 2.34361 76.2627 2.36792H75.5377V4.44137H76.2397Z" fill="#4C6E84"/>
<path d="M81.4645 7.7433H80.3252V1.43091H81.501L81.4645 7.7433Z" fill="#4C6E84"/>
<path d="M87.5812 2.41009H85.6871V7.7433H84.5113V2.41009H82.647V1.43091H87.5812V2.41009Z" fill="#4C6E84"/>
<path d="M91.491 5.30477V7.74265H90.3228V5.30477L88.0298 1.43025H89.031C89.1172 1.42394 89.2027 1.44992 89.2708 1.50314C89.3355 1.55464 89.3877 1.62024 89.4233 1.69495L90.5741 3.79908C90.6381 3.91214 90.6963 4.02832 90.7487 4.14721L90.8868 4.48095C90.9232 4.37258 90.9664 4.26325 91.0172 4.14721C91.068 4.03116 91.1188 3.92183 91.1841 3.79908L92.3349 1.69495C92.368 1.62568 92.4178 1.56571 92.4797 1.5204C92.5457 1.46201 92.6314 1.43083 92.7195 1.43313H93.7572L91.491 5.30477Z" fill="#4C6E84"/>
<path d="M30.1216 14.9342V17.4814C29.8138 17.7126 29.4673 17.887 29.0983 17.9965C28.7214 18.1088 28.3301 18.165 27.9369 18.1633C27.4616 18.1702 26.9891 18.0889 26.5434 17.9236C26.1453 17.776 25.7822 17.5474 25.477 17.2522C25.1801 16.966 24.9476 16.6198 24.7951 16.2366C24.4804 15.3992 24.4804 14.476 24.7951 13.6386C24.9392 13.258 25.1617 12.912 25.4482 12.623C25.7399 12.3313 26.0913 12.1062 26.4782 11.9631C26.9111 11.7973 27.3717 11.7159 27.8352 11.7234C28.0788 11.7217 28.3219 11.7435 28.5612 11.7886C28.7718 11.8235 28.9784 11.8794 29.1779 11.9555C29.3614 12.0195 29.5368 12.1048 29.7006 12.2096C29.8524 12.3113 29.9955 12.4255 30.1283 12.551L29.7917 13.0795C29.7455 13.1541 29.6729 13.2086 29.5883 13.2319C29.541 13.2432 29.4917 13.244 29.444 13.2343C29.3963 13.2245 29.3513 13.2044 29.3121 13.1754L29.0244 13.0162C28.9242 12.9552 28.817 12.9065 28.7051 12.8713C28.5772 12.8272 28.4461 12.7932 28.3128 12.7697C28.1449 12.7418 27.9747 12.7296 27.8045 12.7332C27.5165 12.7279 27.2303 12.7797 26.9625 12.8857C26.7166 12.9858 26.4961 13.1395 26.3171 13.3355C26.1331 13.547 25.9946 13.7941 25.9104 14.0615C25.8074 14.3549 25.7583 14.6646 25.7656 14.9755C25.7545 15.3052 25.8012 15.6344 25.9037 15.9479C25.9951 16.2184 26.1436 16.466 26.3391 16.6739C26.5275 16.871 26.7566 17.0245 27.0105 17.1237C27.2933 17.2306 27.5933 17.2846 27.8956 17.2829C28.1064 17.2848 28.3164 17.258 28.52 17.2033C28.7047 17.1567 28.8846 17.0925 29.057 17.0115V15.8194H28.2658C28.2328 15.8217 28.1996 15.8171 28.1684 15.8058C28.1372 15.7946 28.1086 15.777 28.0846 15.7542C28.0472 15.7122 28.0265 15.658 28.0261 15.6017V14.9304L30.1216 14.9342Z" fill="#4C6E84"/>
<path d="M35.8756 17.1474C36.084 17.1506 36.291 17.1138 36.4856 17.039C36.6561 16.9651 36.8093 16.8563 36.9353 16.7197C37.058 16.5718 37.1514 16.4019 37.2106 16.2191C37.2807 16.0086 37.315 15.7878 37.3122 15.566V11.7998H38.4804V15.566C38.4859 15.9202 38.4244 16.2723 38.2991 16.6036C38.188 16.9126 38.0125 17.1944 37.7841 17.4303C37.5513 17.6646 37.2719 17.8476 36.9641 17.9674C36.2616 18.2268 35.4896 18.2268 34.7871 17.9674C34.4793 17.8476 34.1999 17.6646 33.9671 17.4303C33.7388 17.1944 33.5632 16.9126 33.4521 16.6036C33.3268 16.2723 33.2653 15.9202 33.2709 15.566V11.7998H34.439V15.566C34.4374 15.7877 34.4717 16.0083 34.5406 16.2191C34.6009 16.4017 34.6989 16.5697 34.8283 16.712C34.9542 16.8505 35.1073 16.9616 35.2781 17.0381C35.4702 17.1119 35.6746 17.1487 35.8804 17.1464L35.8756 17.1474Z" fill="#4C6E84"/>
<path d="M47.1387 18.1196H46.2247C46.1342 18.1243 46.0448 18.0986 45.9705 18.0467C45.9101 17.9945 45.8628 17.9288 45.8324 17.8549L45.3606 16.5707H42.7472L42.283 17.8549C42.2509 17.9247 42.2037 17.9866 42.1449 18.0362C42.0754 18.0921 41.9876 18.1205 41.8985 18.1158H40.9912L43.4655 11.8245H44.6624L47.1387 18.1196ZM45.0633 15.722L44.3363 13.6217C44.2999 13.5258 44.2567 13.4184 44.2203 13.2956C44.1839 13.1729 44.133 13.0271 44.0966 12.8823C44.0601 13.0271 44.017 13.17 43.9805 13.2956C43.9453 13.409 43.904 13.5204 43.8568 13.6294L43.1308 15.7191L45.0633 15.722Z" fill="#4C6E84"/>
<path d="M54.7906 18.1189H53.7356C53.6483 18.1269 53.5606 18.1092 53.4833 18.0679C53.4059 18.0267 53.3423 17.9638 53.3002 17.8869L51.9796 15.8729C51.9374 15.8074 51.8802 15.7528 51.8128 15.7137C51.7308 15.6773 51.6416 15.6599 51.5519 15.6628H51.0513V18.1189H49.8496V11.7989H51.7677C52.1395 11.7922 52.5106 11.8361 52.8706 11.9293C53.1348 12.0032 53.3816 12.129 53.5966 12.2995C53.7861 12.4533 53.9355 12.6507 54.032 12.8749C54.1256 13.1054 54.1725 13.3522 54.1701 13.6009C54.1725 13.8057 54.14 14.0093 54.0742 14.2032C54.0156 14.3893 53.9247 14.5636 53.8056 14.7182C53.6841 14.877 53.537 15.0144 53.3702 15.1248C53.1874 15.2424 52.9897 15.3349 52.7823 15.4001C52.8569 15.4443 52.9272 15.4954 52.9924 15.5526C53.0558 15.618 53.1142 15.6882 53.1669 15.7626L54.7906 18.1189ZM51.7792 14.8246C51.9746 14.8289 52.1693 14.7994 52.3546 14.7374C52.5038 14.685 52.6399 14.6009 52.7536 14.4909C52.8567 14.3927 52.9383 14.2741 52.9933 14.1428C53.0445 14.0008 53.0692 13.8506 53.0662 13.6997C53.0735 13.5629 53.0491 13.4262 52.9951 13.3003C52.941 13.1745 52.8587 13.0627 52.7545 12.9737C52.4718 12.7804 52.131 12.6907 51.7897 12.7196H51.0638V14.8103L51.7792 14.8246Z" fill="#4C6E84"/>
<path d="M62.9538 18.1197H62.0542C61.9642 18.1227 61.8759 18.0957 61.8029 18.043C61.7425 17.9908 61.6951 17.9251 61.6648 17.8512L61.193 16.567H58.5575L58.0934 17.8512C58.0612 17.921 58.0141 17.9829 57.9553 18.0325C57.8857 18.0884 57.7979 18.1168 57.7088 18.1121H56.8159L59.2826 11.792H60.4794L62.9538 18.1197ZM60.8861 15.7471L60.1601 13.6497C60.1331 13.5372 60.0942 13.4278 60.044 13.3236C60.0076 13.1999 59.9568 13.055 59.9203 12.9102C59.9005 13.0526 59.8615 13.1917 59.8043 13.3236C59.769 13.4369 59.7277 13.5484 59.6806 13.6573L58.9546 15.7471H60.8861Z" fill="#4C6E84"/>
<path d="M71.0084 11.7987V18.1188H70.4062C70.3217 18.1132 70.2397 18.0882 70.1664 18.0459C70.0945 18.0105 70.0323 17.9582 69.9851 17.8934L66.7052 13.6918C66.7153 13.8707 66.7153 14.05 66.7052 14.2289V18.1178H65.6973V11.7977H66.4261C66.4576 11.7901 66.4905 11.7901 66.522 11.7977L66.6016 11.8562C66.636 11.8852 66.6654 11.9196 66.6889 11.9579L69.9899 16.1662V11.7987H71.0084Z" fill="#4C6E84"/>
<path d="M78.8744 12.7574H76.9803V18.1194H75.8295V12.7574H73.9258V11.7983H78.8744V12.7574Z" fill="#4C6E84"/>
<path d="M82.9883 12.7282V14.4947H85.1653V15.3943H82.9883V17.1723H85.782V18.1227H81.8125V11.7998H85.781V12.7282H82.9883Z" fill="#4C6E84"/>
<path d="M90.0845 12.7282V14.4947H92.2615V15.3943H90.0845V17.1723H92.8782V18.1227H88.9087V11.7998H92.8772V12.7282H90.0845Z" fill="#4C6E84"/>
</svg>
