<svg width="60" height="14" viewBox="0 0 60 14" fill="none" xmlns="http://www.w3.org/2000/svg">
<path fill-rule="evenodd" clip-rule="evenodd" d="M13.2844 0.755082C13.0087 0.839699 12.6322 1.17468 12.4905 1.46158L12.3819 1.68128V5.63103V9.58078L12.5203 9.82978C12.7608 10.2625 13.1862 10.5334 13.6256 10.5334H13.8037V9.04642V7.55946L14.5612 7.56044C15.4197 7.56159 15.6086 7.61127 15.8207 7.89127C15.991 8.11611 16.0408 8.35147 16.041 8.93359C16.0414 9.55296 16.1106 9.7899 16.381 10.0961C16.616 10.3622 16.9602 10.5323 17.265 10.5329L17.4864 10.5334L17.4855 9.56917C17.4846 8.42886 17.4372 7.91142 17.3005 7.54795C17.1674 7.19401 16.8149 6.81176 16.4697 6.647C16.3239 6.57739 16.1954 6.51341 16.1843 6.50487C16.1733 6.49632 16.228 6.42161 16.3061 6.33896C16.3842 6.25631 16.5317 6.06318 16.6341 5.90983C16.8233 5.62628 17.9059 3.80336 17.9059 3.76828C17.9059 3.75773 17.5441 3.74941 17.1018 3.74978L16.2977 3.75048L15.715 4.73564C15.3945 5.27745 15.0807 5.78195 15.0177 5.85677C14.8378 6.07019 14.58 6.1632 14.165 6.1644L13.8037 6.16539V3.42381V0.68222L13.6522 0.685473C13.5689 0.687239 13.4034 0.718558 13.2844 0.755082ZM47.8566 0.725668C47.5023 0.811679 47.1527 1.08082 46.9784 1.40247C46.8791 1.58546 46.8772 1.63272 46.8488 4.4461C46.8167 7.57501 46.8087 7.66949 46.5308 8.23398C46.1262 9.05546 45.2531 9.4674 44.3278 9.2734C43.3283 9.06389 42.7056 8.23644 42.7056 7.11799C42.7056 5.95486 43.3306 5.18057 44.4187 4.99572C44.9789 4.9006 45.5953 5.05306 46.2545 5.4498C46.3989 5.5367 46.5299 5.60779 46.5458 5.60779C46.5617 5.60779 46.5747 5.27369 46.5747 4.86538C46.5747 4.00271 46.6161 4.07459 45.9876 3.84643C45.0196 3.495 43.9114 3.53752 43.0788 3.95805C42.2832 4.3599 41.6186 5.20078 41.3709 6.11893C41.2493 6.56977 41.2617 7.55299 41.3953 8.04737C41.732 9.29366 42.5445 10.1673 43.7078 10.5342C44.205 10.6909 45.1116 10.7151 45.6537 10.5859C46.8679 10.2966 47.7616 9.39494 48.1238 8.09382C48.2259 7.72733 48.2272 7.67245 48.2421 4.20214L48.2566 0.68222L48.1266 0.68696C48.0552 0.689609 47.9335 0.706988 47.8566 0.725668ZM50.2769 1.60674C49.656 1.88801 49.643 2.77833 50.2559 3.08692C50.675 3.29793 51.1706 3.15848 51.3645 2.77503C51.6013 2.30682 51.4405 1.8184 50.9799 1.60646C50.7431 1.49749 50.5184 1.49759 50.2769 1.60674ZM1.17731 2.07978C0.763035 2.16096 0.365636 2.51741 0.212596 2.9451C0.115541 3.21629 0.118105 8.57718 0.215486 8.9888C0.371136 9.647 0.800608 10.1837 1.34578 10.4014C1.59555 10.5012 1.69181 10.5095 2.76743 10.5239L3.92117 10.5392V9.86587V9.19239L2.93058 9.17749C2.07705 9.16462 1.92326 9.15126 1.81898 9.0806C1.57248 8.9136 1.56893 8.88506 1.55285 6.92048L1.53789 5.09665H2.72953H3.92117V4.42286V3.74909H2.73247H1.54376V2.88943C1.54376 1.92588 1.57788 2.0013 1.17731 2.07978ZM36.6688 3.61512C35.2288 3.8239 34.0742 4.88861 33.7036 6.34937C33.5566 6.92908 33.5908 7.70493 33.7884 8.2686C33.9726 8.7943 34.1727 9.12562 34.5473 9.52524C35.6614 10.7138 37.4687 11.0747 38.8744 10.3893C39.0363 10.3104 39.3061 10.1177 39.474 9.96123C39.8072 9.65051 40.1749 9.15109 40.1115 9.09522C39.9888 8.98683 39.0278 8.30294 38.9982 8.30294C38.9788 8.30294 38.7919 8.4666 38.5829 8.66663C38.1617 9.06964 37.8298 9.2579 37.424 9.32373C36.7103 9.43947 35.7979 9.02188 35.3743 8.38554C35.2484 8.19657 35.0606 7.73851 35.0606 7.62069C35.0606 7.61253 36.3402 7.6059 37.9042 7.6059H40.7477V7.26347C40.7477 6.81877 40.6382 6.20132 40.4894 5.80728C40.063 4.67797 38.8955 3.79207 37.5963 3.61196C37.1996 3.55694 37.0668 3.5574 36.6688 3.61512ZM7.10809 3.67618C5.37256 4.06994 4.25769 5.55798 4.356 7.3494C4.38891 7.9484 4.47287 8.29543 4.69387 8.74545C5.02424 9.41816 5.59783 9.9741 6.3219 10.3232C6.84556 10.5757 7.27902 10.6728 7.8835 10.6728C8.48805 10.6728 8.92144 10.5757 9.44517 10.3232C10.1691 9.9741 10.7425 9.41838 11.0732 8.74545C11.3386 8.20555 11.4005 7.90332 11.4018 7.14121C11.4028 6.56271 11.3876 6.41816 11.2938 6.11893C11.0995 5.49855 10.892 5.16282 10.4033 4.67844C9.89846 4.17808 9.59999 3.98561 9.01447 3.78277C8.65612 3.65871 8.53175 3.63951 8.00006 3.62632C7.59751 3.61633 7.29804 3.63306 7.10809 3.67618ZM20.953 3.67618C19.2175 4.06994 18.1026 5.55798 18.2009 7.3494C18.2339 7.9484 18.3178 8.29543 18.5388 8.74545C18.8691 9.41816 19.4428 9.9741 20.1668 10.3232C20.6905 10.5757 21.1239 10.6728 21.7285 10.6728C22.3329 10.6728 22.7664 10.5757 23.2901 10.3232C24.014 9.9741 24.5875 9.41838 24.9182 8.74545C25.1846 8.20325 25.2461 7.9031 25.2467 7.14121C25.2471 6.56484 25.2315 6.41707 25.1384 6.11893C24.945 5.49938 24.7371 5.16309 24.2482 4.67844C23.7434 4.17808 23.4449 3.98561 22.8594 3.78277C22.5011 3.65871 22.3767 3.63951 21.8449 3.62632C21.4425 3.61633 21.1429 3.63306 20.953 3.67618ZM28.6909 3.67878C27.693 3.90698 26.9363 4.51255 26.476 5.45143C26.0703 6.27882 26.065 6.33206 26.0643 9.60735C26.0637 12.7229 26.0592 12.6719 26.3642 13.0271C26.564 13.2597 26.9093 13.4461 27.2156 13.4867L27.457 13.5186L27.4734 10.2021C27.4881 7.23153 27.4982 6.85656 27.5702 6.60685C27.7666 5.92633 28.1399 5.41235 28.6098 5.17564C29.4285 4.76334 30.555 4.98522 31.1176 5.66964C31.8858 6.60422 31.711 8.33914 30.787 8.94925C30.3943 9.20855 30.0999 9.29372 29.5832 9.29739C29.0332 9.30139 28.7152 9.21008 28.1394 8.88309C27.9377 8.76845 27.7656 8.67468 27.7572 8.67468C27.7488 8.67468 27.7419 9.00682 27.7419 9.41279C27.7419 10.2603 27.7065 10.1915 28.2579 10.4149C28.9965 10.7141 30.0874 10.7604 30.7642 10.5213C31.6989 10.1911 32.4869 9.4146 32.8254 8.48988C33.1488 7.60662 33.0821 6.418 32.6597 5.53674C32.2378 4.6566 31.4337 3.97724 30.5155 3.7252C30.129 3.61907 29.0698 3.59216 28.6909 3.67878ZM55.7116 3.64189C54.9278 3.7732 54.3759 4.05522 53.8221 4.60725C53.1205 5.30742 52.8571 5.97925 52.8571 7.07154C52.8571 7.7998 52.9518 8.21371 53.2604 8.8373C53.602 9.52705 54.1037 10.0333 54.7619 10.3524C55.2882 10.6073 55.7 10.6863 56.3642 10.6599C56.9964 10.6347 57.3032 10.5386 57.7925 10.2122L58.1119 9.99897L58.1246 9.1277C58.1317 8.64855 58.1213 8.25644 58.1004 8.25644C58.0806 8.25644 57.98 8.36209 57.8783 8.4913C57.2279 9.31459 56.2943 9.53833 55.3899 9.08777C55.0728 8.92992 54.6579 8.51337 54.5073 8.20216C53.8622 6.86648 54.5829 5.25626 55.9392 5.00395C56.2762 4.94126 56.5143 4.94623 56.8799 5.02356C57.7051 5.1979 58.2466 5.71648 58.3659 6.4456C58.3923 6.61096 58.4149 7.37356 58.4154 8.14026C58.416 9.50317 58.4182 9.53954 58.5254 9.76761C58.7288 10.2043 59.1966 10.532 59.6178 10.5329L59.819 10.5334L59.8036 8.31455L59.7888 6.0957L59.6618 5.72396C59.504 5.26212 59.3308 4.95905 59.0378 4.63453C58.6001 4.14848 57.8783 3.78361 57.1075 3.65899C56.8183 3.61219 55.9518 3.60155 55.7116 3.64189ZM49.9311 6.57514C49.9311 9.7181 49.9296 9.70155 50.2369 10.0594C50.476 10.338 50.7604 10.4906 51.0965 10.521L51.3761 10.5463V7.14768V3.74909H50.6536H49.9311V6.57514ZM8.39651 5.03015C9.32625 5.24097 9.93464 6.07595 9.93464 7.14121C9.93464 8.2979 9.24719 9.14118 8.17918 9.29454C7.10908 9.44823 6.17978 8.83297 5.90016 7.78567C5.81257 7.45769 5.81439 6.81154 5.90389 6.46905C6.1927 5.36374 7.22904 4.76547 8.39651 5.03015ZM22.2415 5.03015C22.819 5.1611 23.2964 5.54836 23.5524 6.09371C24.0771 7.21143 23.6702 8.6124 22.6798 9.09845C21.5955 9.63057 20.2792 9.16155 19.8409 8.08692C19.6861 7.70734 19.6308 7.00751 19.7214 6.57289C19.9626 5.41453 21.0367 4.75702 22.2415 5.03015ZM37.7209 5.03215C38.4063 5.23484 38.9288 5.6807 39.09 6.20028L39.1225 6.30478H37.208C36.1551 6.30478 35.2937 6.28862 35.2937 6.26891C35.2937 6.20597 35.622 5.72972 35.7752 5.57034C36.2763 5.0493 37.0526 4.83452 37.7209 5.03215Z" fill="#42B549"/>
</svg>
